<svg width="18" height="18" viewBox="0 0 18 18" fill="none" xmlns="http://www.w3.org/2000/svg">
    <mask id="mask0_336_49" style="mask-type:alpha" maskUnits="userSpaceOnUse" x="0" y="0"
        width="18" height="18">
        <rect width="18" height="18" fill="#D9D9D9" />
    </mask>
    <g mask="url(#mask0_336_49)">
        <path
            d="M14.5918 12.3428L13.6687 11.3845C13.7815 11.0971 13.8663 10.8177 13.9229 10.5464C13.9791 10.2747 14.0072 9.98976 14.0072 9.69165C14.0072 8.45659 13.5867 7.39189 12.7457 6.49754C11.9047 5.60319 10.8894 5.15602 9.69971 5.15602C9.41254 5.15602 9.13563 5.17987 8.86898 5.22757C8.60233 5.27569 8.33568 5.35831 8.06902 5.47543L7.14599 4.5172C7.53572 4.30426 7.94349 4.14455 8.36932 4.03808C8.79473 3.93161 9.23819 3.87838 9.69971 3.87838C10.4586 3.87838 11.1741 4.02744 11.8461 4.32555C12.5176 4.62367 13.1047 5.03613 13.6072 5.56295C14.1097 6.09019 14.5073 6.70516 14.7998 7.40786C15.0918 8.11057 15.2379 8.87183 15.2379 9.69165C15.2379 10.1708 15.1815 10.6311 15.0687 11.0728C14.9558 11.5148 14.7969 11.9382 14.5918 12.3428ZM13.2072 3.2715C13.32 3.15438 13.4636 3.09582 13.638 3.09582C13.8123 3.09582 13.9559 3.15438 14.0687 3.2715L15.8379 5.10811C15.9507 5.22523 16.0046 5.37152 15.9997 5.54698C15.9944 5.72287 15.9353 5.86937 15.8225 5.98649C15.7097 6.1036 15.5661 6.16216 15.3917 6.16216C15.2174 6.16216 15.0738 6.1036 14.961 5.98649L13.1918 4.14988C13.079 4.03276 13.0253 3.88626 13.0306 3.71037C13.0355 3.53491 13.0944 3.38862 13.2072 3.2715ZM15.361 15.8243C15.2481 15.9414 15.1046 16 14.9302 16C14.7559 16 14.6123 15.9414 14.4995 15.8243L12.9918 14.2592C12.5098 14.6319 11.9892 14.9112 11.4301 15.0973C10.8713 15.2839 10.2945 15.3771 9.69971 15.3771C8.94077 15.3771 8.22532 15.2281 7.55336 14.93C6.8818 14.6319 6.29476 14.2273 5.79222 13.7162C5.28968 13.2052 4.89216 12.6036 4.59966 11.9115C4.30758 11.2195 4.16153 10.4795 4.16153 9.69165C4.16153 9.06347 4.2565 8.45659 4.44644 7.87101C4.63597 7.28542 4.91021 6.74242 5.26917 6.24201L4.74612 5.69902L4.42306 6.0344C4.31024 6.15152 4.16933 6.20731 4.00031 6.20177C3.83088 6.19666 3.68976 6.13554 3.57695 6.01843C3.46413 5.90131 3.40772 5.75225 3.40772 5.57125C3.40772 5.39025 3.46413 5.2412 3.57695 5.12408L3.88462 4.80467L3.16158 4.05405C3.04877 3.93694 2.99503 3.79043 3.00036 3.61455C3.00528 3.43908 3.06415 3.29279 3.17697 3.17568C3.28978 3.05856 3.43336 3 3.60771 3C3.78206 3 3.92565 3.05856 4.03846 3.17568L15.3763 14.9459C15.4892 15.0631 15.5431 15.2096 15.5382 15.3855C15.5328 15.5609 15.4738 15.7072 15.361 15.8243ZM9.69971 14.1155C10.1305 14.1155 10.5509 14.0463 10.9612 13.9079C11.3714 13.7695 11.7509 13.5778 12.0996 13.3329L6.13066 7.1683C5.89478 7.54095 5.71263 7.94277 5.58423 8.37376C5.45623 8.80518 5.39224 9.24447 5.39224 9.69165C5.39224 10.9267 5.81273 11.9727 6.65371 12.8295C7.49469 13.6868 8.51003 14.1155 9.69971 14.1155Z"
            fill="#FF3648" />
    </g>
</svg>