<svg width="39" height="39" viewBox="0 0 39 39" fill="none" xmlns="http://www.w3.org/2000/svg">
<g clip-path="url(#clip0_3_3398)">
<path d="M18.7385 0H20.8714C21.2725 0.0528318 21.8732 0.136143 22.6011 0.249935C24.5822 0.560829 25.8589 0.753869 27.3677 1.22529C28.1343 1.46405 28.9273 1.64388 29.6318 2.05637C29.0251 2.85393 28.2666 3.5123 27.6049 4.25905C27.4613 4.42161 27.4043 4.52829 27.5377 4.7447C27.8553 5.26082 28.1495 5.79321 28.4203 6.33575C29.302 8.10053 30.1001 9.90494 30.884 11.7144C32.18 14.7045 33.4129 17.722 34.6112 20.7527C34.7995 21.2292 35.0764 21.6813 35.0988 22.2147C35.0164 22.1203 34.9298 22.0278 34.8514 21.9292C33.9769 20.8299 33.0943 19.7377 32.1444 18.7014L32.1464 18.7035C32.121 18.676 32.0966 18.6486 32.0711 18.6212C31.784 18.2869 31.5061 17.9435 31.2078 17.6194C30.5074 16.8584 29.8507 16.0548 29.0984 15.3425C28.8398 15.0479 28.6525 14.6811 28.2656 14.5145C28.0019 14.0756 27.669 13.6977 27.2669 13.3796C27.052 13.1317 26.8484 12.8737 26.6214 12.638C24.5252 10.4556 22.428 8.27427 20.3237 6.10004C19.8401 5.60017 19.1651 5.60525 18.6775 6.10004C18.0106 6.77567 17.3438 7.45233 16.6932 8.14422C15.3148 9.61132 13.9048 11.0479 12.5121 12.5018C12.2423 12.7843 11.9928 13.087 11.7343 13.3796C11.3301 13.6956 11.0104 14.0847 10.7355 14.5145C10.3497 14.6821 10.1613 15.0469 9.90174 15.3425C8.83786 16.4175 7.83914 17.5523 6.85773 18.7014C5.78876 19.8719 4.7931 21.1022 3.82084 22.3529C2.79362 23.6737 1.87431 25.0666 1.06902 26.5337C0.936668 26.3935 1.06698 26.2696 1.1077 26.1538C1.95473 23.7458 2.87913 21.3674 3.8239 18.9961C4.77884 16.6024 5.75008 14.2148 6.77832 11.8516C7.42886 10.356 8.11504 8.87675 8.77373 7.38527C9.53727 5.65503 10.5319 4.13002 12.0214 2.9281C13.2644 1.92531 14.6072 1.1623 16.0783 0.673605C16.1995 0.632965 16.963 0.481582 17.9903 0.207263C18.3089 0.121919 18.5695 0.0487678 18.7375 0L18.7385 0Z" fill="#F2F0F3"/>
<path d="M10.7365 14.5134C11.0103 14.0837 11.331 13.6945 11.7352 13.3786C12.2188 13.3816 12.7013 13.3857 13.1849 13.3887C12.9731 13.8368 12.4926 14.0623 12.2106 14.5358C13.7845 14.4484 15.2974 14.6425 16.8143 14.5886C17.3366 14.5703 17.8395 14.4433 18.263 14.105C18.5297 13.8916 18.6061 13.5015 18.4259 13.2607C18.2141 12.9773 17.9097 12.9265 17.5901 13.1307C17.3977 13.2536 17.2113 13.3816 16.968 13.3806C15.7525 13.3745 14.5359 13.3715 13.3203 13.3674C13.3417 13.2302 13.4506 13.1551 13.5372 13.0636C13.9973 12.5759 14.4738 12.1045 14.9309 11.6128C16.1098 10.3418 17.3213 9.10123 18.5297 7.85765C19.1681 7.2003 19.839 7.19929 20.4773 7.85765C21.4373 8.84723 22.3801 9.85408 23.334 10.8498C24.0609 11.6087 24.7929 12.3616 25.5238 13.1175C25.5941 13.1906 25.6704 13.2587 25.6867 13.3674C24.5852 13.3715 23.4826 13.3694 22.3811 13.3847C22.0156 13.3897 21.6888 13.341 21.3824 13.1144C21.1034 12.9082 20.7858 12.9884 20.5811 13.2607C20.405 13.4954 20.4814 13.85 20.7247 14.0684C21.1787 14.4758 21.7326 14.5764 22.3068 14.5917C23.7616 14.6293 25.2133 14.4697 26.6681 14.5185C26.6977 14.5185 26.7282 14.4921 26.7689 14.4718C26.489 14.0654 26.0359 13.8297 25.8201 13.3897C26.3027 13.3867 26.7862 13.3826 27.2688 13.3796C27.6709 13.6976 28.0038 14.0755 28.2675 14.5145C27.8318 14.5145 27.3961 14.5145 26.9094 14.5145C27.1354 14.9026 27.4001 15.1555 27.6679 15.4004C27.8796 15.5945 27.9702 15.8017 27.9631 16.0964C27.9438 16.9823 27.954 17.8683 27.959 18.7542C27.959 18.8446 27.9081 18.9564 28.0201 19.0265C28.1606 19.0072 28.237 18.9015 28.3337 18.8202C28.7501 18.4718 28.9211 17.9851 29.0962 17.4994C29.0983 19.183 29.1013 20.8665 29.1034 22.55C29.1074 24.9416 29.1105 27.3343 29.1146 29.7259C29.0341 30.9035 29.1899 31.9936 30.2477 32.7455C30.1733 32.8704 30.0349 32.8765 29.9178 32.908C29.1481 33.1122 28.3795 33.3236 27.6048 33.5034C26.7364 33.7056 25.8751 33.9454 24.9608 33.8387C23.6241 33.6832 22.7608 32.9466 22.2986 31.7234C21.9413 30.7785 21.9097 29.7727 21.8731 28.78C21.8374 27.8057 21.8588 26.8293 21.868 25.854C21.87 25.6355 21.8049 25.4984 21.5992 25.41C20.9588 25.1357 20.3215 24.8563 19.6883 24.5667C19.5437 24.5007 19.4317 24.5169 19.2953 24.5789C18.6723 24.8603 18.0472 25.1377 17.418 25.4039C17.194 25.4984 17.1452 25.6508 17.137 25.8794C17.0983 26.8801 17.2195 27.8748 17.2175 28.8735C17.2144 30.3518 17.3193 31.823 17.6033 33.2748C17.9209 34.9035 18.5542 36.3472 20.1026 37.1935C20.6453 37.4902 21.1971 37.8061 21.8446 37.7777C22.3353 37.7553 22.826 37.6954 23.3106 37.6151C24.632 37.3977 25.9362 37.1041 27.2291 36.7536C28.9466 36.2883 30.6416 35.7041 32.4284 35.5588C33.9707 35.4328 35.5182 35.38 36.971 36.0851C37.424 36.3055 37.536 36.2151 37.5635 35.7051C37.5869 35.2672 37.3741 34.8659 37.4118 34.432C37.4576 34.432 37.5044 34.432 37.5502 34.431C37.5838 34.6281 37.7274 34.7602 37.8373 34.9116C38.3657 35.6411 38.6894 36.4589 38.8411 37.3398C38.8869 37.606 38.9175 37.9149 38.6151 38.0866C38.326 38.2512 38.0593 38.1699 37.8058 37.9799C36.1097 36.7079 34.1784 36.46 32.1494 36.7424C30.6355 36.9537 29.1665 37.3855 27.6974 37.8011C26.2283 38.2166 24.7491 38.5814 23.2312 38.7876C22.7252 38.8567 22.206 38.8516 21.7112 39.001H19.1976C19.1426 38.937 19.0683 38.9298 18.9909 38.9278C17.4353 38.8729 15.9337 38.5661 14.5074 37.9331C13.5616 37.5135 12.7308 36.9283 12.0284 36.1674C11.837 35.9591 11.6354 35.7599 11.5082 35.5029C11.6486 35.4876 11.7393 35.5689 11.8431 35.6492C12.1027 35.8493 12.3643 36.0505 12.6433 36.2222C13.7367 36.8948 14.9462 37.2463 16.1963 37.4851C17.0352 37.6456 17.8812 37.7208 18.8128 37.8011C18.2162 37.2402 17.701 36.7302 17.3457 36.0749C16.5618 34.6301 16.3083 33.0482 16.1638 31.4511C16.0426 30.1201 15.9703 28.7811 15.9978 27.441C16.0049 27.0864 15.9988 26.7318 15.9978 26.3772C15.9978 26.2136 15.9622 26.1181 15.782 26.2563C15.5203 26.4575 15.2679 26.6607 15.0693 26.9309C14.9217 27.1321 14.8036 27.3637 14.5817 27.506C14.3669 27.6442 14.1796 27.5913 13.9861 27.4532C13.7886 27.3129 13.8029 27.1463 13.8884 26.9573C14.1887 26.2868 14.601 25.6955 15.221 25.2891C16.5099 24.4428 17.981 23.9673 19.3584 23.3018C19.4857 23.2408 19.6018 23.2815 19.7219 23.3353C20.3348 23.6076 20.9599 23.8545 21.5615 24.1502C22.489 24.6053 23.505 24.9081 24.2533 25.6813C24.3867 25.8194 24.4976 25.792 24.5485 25.5949C24.69 25.0442 24.8214 24.4997 24.7196 23.9185C24.6656 23.6107 24.5801 23.312 24.5007 23.0102C25.6918 24.1258 25.815 25.791 25.2337 27.1687C25.0219 27.6696 24.5088 27.7143 24.1871 27.2764C23.9469 26.9502 23.729 26.6048 23.3788 26.3823C23.278 26.3183 23.2047 26.1425 23.0703 26.2075C22.94 26.2705 23.0092 26.4372 23.0092 26.556C23.0062 27.377 23.0184 28.1969 23.0693 29.0188C23.1049 29.5989 23.1456 30.175 23.2413 30.747C23.4511 32.0028 24.3286 32.8176 25.6063 32.6947C26.4544 32.6134 27.2678 32.3889 28.0873 32.1775C28.2482 32.1359 28.239 32.0607 28.1891 31.9296C28.011 31.4521 27.9529 30.9553 27.9529 30.4442C27.959 26.8466 27.956 23.249 27.956 19.6513C27.956 19.5629 27.956 19.4735 27.956 19.3851C27.956 19.2175 27.9265 19.1555 27.7351 19.2541C27.0693 19.5934 26.3902 19.9074 25.7203 20.2386C24.8804 20.6531 24.2686 21.2566 24.1607 22.235C24.126 22.554 24.0487 22.491 23.8583 22.3356C23.1344 21.7443 22.3617 21.2221 21.5524 20.7527C21.6898 20.3635 21.6491 19.9907 21.4852 19.6137C21.0617 18.6424 20.6575 17.663 20.236 16.6907C20.0986 16.3747 19.8807 16.1248 19.501 16.1248C19.1212 16.1248 18.9054 16.3758 18.7669 16.6917C18.3658 17.6041 17.9739 18.5205 17.5789 19.4359C17.3956 19.8616 17.2714 20.2934 17.4496 20.7537C17.3915 20.775 17.3233 20.7842 17.2755 20.8197C16.5761 21.3399 15.8125 21.7697 15.1437 22.3305C14.9523 22.491 14.8749 22.5032 14.8352 22.2106C14.767 21.7036 14.5664 21.2566 14.1887 20.8766C13.6522 20.3381 12.9681 20.0699 12.3002 19.7732C11.2282 19.2957 10.2091 18.7776 9.91284 17.4964C9.91183 17.2932 9.91081 17.09 9.90979 16.8868C10.6957 16.1787 11.3677 15.3689 12.0844 14.5978C12.063 14.5703 12.0416 14.5439 12.0202 14.5165H10.7365V14.5134ZM15.4979 16.7283C15.8023 16.7283 16.1067 16.7375 16.4111 16.7263C16.7634 16.7121 16.9904 16.4814 16.9945 16.1563C16.9986 15.817 16.7909 15.5843 16.4305 15.5762C15.8095 15.563 15.1874 15.563 14.5654 15.5762C14.203 15.5843 13.9983 15.8139 14.0034 16.1563C14.0075 16.4845 14.2315 16.7131 14.5847 16.7263C14.8891 16.7385 15.1935 16.7283 15.4979 16.7293V16.7283ZM23.4989 16.7283C23.8033 16.7283 24.1077 16.7375 24.4121 16.7263C24.7684 16.7131 24.9924 16.4875 24.9985 16.1604C25.0046 15.817 24.801 15.5843 24.4406 15.5762C23.8196 15.5619 23.1976 15.5619 22.5755 15.5762C22.2121 15.5843 22.0044 15.8129 22.0074 16.1522C22.0105 16.4784 22.2355 16.7121 22.5857 16.7263C22.8901 16.7385 23.1945 16.7293 23.4989 16.7293V16.7283Z" fill="#E2CEC5"/>
<path d="M0.0753367 31.2276C0.0498851 31.2337 0.0254516 31.2398 0 31.2459C0 30.7135 0 30.1811 0 29.6498C0.129294 29.1692 0.232119 28.6795 0.395009 28.2111C0.593531 27.6422 0.842957 27.0915 1.06999 26.5337C1.87527 25.0666 2.79459 23.6737 3.82181 22.3529C4.79406 21.1022 5.78973 19.8718 6.8587 18.7014C6.8699 18.9026 6.74366 19.056 6.67137 19.2277C6.35883 19.9795 5.96993 20.7009 5.78973 21.5035L5.77751 21.5198C5.75919 21.5432 5.74188 21.5655 5.72356 21.5889C5.66858 21.6895 5.61361 21.7911 5.55965 21.8916C5.51893 21.9221 5.47108 21.9455 5.44053 21.9831C4.09262 23.6331 2.75794 25.2942 1.67879 27.1393C0.931529 28.4174 0.294221 29.7412 0.0753367 31.2276Z" fill="#967B6F"/>
<path d="M29.6318 2.05648C29.8293 2.05038 30.0105 2.11947 30.1704 2.21802C30.4381 2.38261 30.543 2.62238 30.4096 2.93125C30.3434 3.08365 30.2508 3.21573 30.1347 3.33663C29.7407 3.74709 29.3569 4.16771 28.9609 4.57513C28.8469 4.69197 28.8123 4.78138 28.9069 4.93276C30.1429 6.91598 30.998 9.08208 31.9408 11.2065C33.2826 14.2332 34.5114 17.3066 35.7239 20.385C36.5109 22.3825 37.249 24.3992 38.0033 26.4089C38.0339 26.4901 38.1296 26.5877 38.0166 26.6832C37.7855 26.4119 37.6715 26.0736 37.4994 25.7698C36.802 24.5405 35.9652 23.4056 35.1314 22.2687C35.1385 22.2595 35.1517 22.2433 35.1507 22.2423C35.1375 22.228 35.1212 22.2159 35.1049 22.2026L35.1008 22.2128C35.0774 21.6794 34.8015 21.2273 34.6132 20.7508C33.4149 17.7201 32.1821 14.7026 30.8861 11.7125C30.1022 9.90301 29.304 8.09962 28.4223 6.33382C28.1515 5.79127 27.8573 5.25889 27.5397 4.74277C27.4063 4.52636 27.4633 4.41968 27.6069 4.25712C28.2686 3.51037 29.0271 2.852 29.6338 2.05444L29.6318 2.05648Z" fill="#EAD3C9"/>
<path d="M13.184 13.3898C12.7004 13.3868 12.2178 13.3827 11.7343 13.3797C11.9928 13.086 12.2423 12.7843 12.5121 12.5018C13.9048 11.0479 15.3148 9.61032 16.6932 8.14423C17.3438 7.45234 18.0096 6.77569 18.6775 6.10005C19.1651 5.60526 19.8401 5.60018 20.3237 6.10005C22.428 8.27428 24.5252 10.4556 26.6214 12.638C26.8484 12.8737 27.052 13.1318 27.2669 13.3797C26.7843 13.3827 26.3007 13.3868 25.8182 13.3898C25.7734 13.3827 25.7286 13.3746 25.6848 13.3675C25.6685 13.2598 25.5921 13.1907 25.5219 13.1175C24.7919 12.3626 24.0589 11.6088 23.332 10.8498C22.3781 9.85415 21.4354 8.8473 20.4754 7.85772C19.837 7.19936 19.1661 7.20037 18.5278 7.85772C17.3194 9.1013 16.1079 10.3418 14.9289 11.6128C14.4728 12.1056 13.9954 12.576 13.5352 13.0637C13.4497 13.1551 13.3408 13.2303 13.3184 13.3675C13.2736 13.3746 13.2288 13.3827 13.184 13.3898Z" fill="#DAB6A6"/>
<path d="M5.78967 21.5025C5.96885 20.6999 6.35877 19.9786 6.67132 19.2267C6.74258 19.054 6.86984 18.9016 6.85864 18.7004C7.84107 17.5513 8.83877 16.4165 9.90265 15.3416C9.90469 15.8556 9.90774 16.3697 9.90978 16.8838C9.9108 17.087 9.91181 17.2902 9.91283 17.4934C9.90876 17.9242 9.90163 18.354 9.90163 18.7848C9.89756 22.4312 9.89451 26.0776 9.89044 29.724C9.49339 29.8042 9.09634 29.8845 8.6993 29.9648L8.68301 29.9516V18.292C8.10475 18.9341 7.59674 19.5071 7.07752 20.07C6.64281 20.5424 6.28547 21.085 5.78967 21.5015V21.5025Z" fill="#B49689"/>
<path d="M29.1116 29.725C29.1075 27.3333 29.1045 24.9407 29.1004 22.549C29.0973 20.8655 29.0953 19.182 29.0933 17.4985C29.0953 16.7792 29.0963 16.0609 29.0984 15.3416C29.8517 16.0548 30.5074 16.8574 31.2078 17.6184C31.5061 17.9425 31.784 18.2849 32.0711 18.6202C32.0966 18.6476 32.121 18.675 32.1464 18.7025L32.1444 18.7004C32.1291 18.9026 32.2594 19.055 32.3307 19.2267C32.6422 19.9786 33.0342 20.6999 33.2093 21.5046C32.514 20.8432 31.953 20.0629 31.3004 19.3639C30.9889 19.0306 30.6865 18.6893 30.3098 18.2757V29.9577C29.9108 29.8794 29.5107 29.8022 29.1116 29.724V29.725Z" fill="#B49689"/>
<path d="M33.2082 21.5046C33.0331 20.6999 32.6412 19.9786 32.3296 19.2267C32.2584 19.054 32.1281 18.9026 32.1433 18.7004C33.0932 19.7368 33.9769 20.829 34.8504 21.9283C34.9287 22.0268 35.0153 22.1182 35.0977 22.2138L35.1018 22.2036C35.0998 22.23 35.1089 22.2524 35.1283 22.2696C35.9631 23.4065 36.7989 24.5404 37.4963 25.7708C37.6694 26.0756 37.7834 26.4129 38.0135 26.6841C38.3942 27.5924 38.776 28.4997 38.9206 29.4832C39.1914 31.3333 38.7607 32.9894 37.5462 34.4291C37.5004 34.4291 37.4535 34.4291 37.4077 34.4301V34.4331L37.3334 34.3417C37.1512 34.0684 36.8529 33.917 36.636 33.6803C36.7562 33.4862 36.9394 33.347 37.0636 33.1509C37.8821 31.8606 37.9208 30.4596 37.6561 29.0219C37.4831 28.0821 37.1023 27.2155 36.6442 26.3803C35.7544 24.7568 34.6457 23.2897 33.4383 21.8927C33.3823 21.7921 33.3273 21.6905 33.2713 21.5899C33.254 21.5666 33.2367 21.5432 33.2194 21.5198L33.2072 21.5046H33.2082Z" fill="#967B6F"/>
<path d="M29.0983 15.3415C29.0962 16.0608 29.0952 16.7791 29.0932 17.4984C28.9181 17.9841 28.747 18.4717 28.3306 18.8192C28.2349 18.8995 28.1576 19.0051 28.0171 19.0255C27.9051 18.9554 27.957 18.8436 27.956 18.7532C27.9519 17.8672 27.9407 16.9813 27.9601 16.0953C27.9662 15.8017 27.8756 15.5934 27.6648 15.3994C27.3971 15.1545 27.1324 14.9015 26.9064 14.5134C27.393 14.5134 27.8287 14.5134 28.2645 14.5134C28.6513 14.6801 28.8387 15.0468 29.0972 15.3415H29.0983Z" fill="#DAB6A6"/>
<path d="M9.90984 16.8837C9.9078 16.3697 9.90475 15.8556 9.90271 15.3415C10.1613 15.0458 10.3496 14.6811 10.7365 14.5134C11.1641 14.5134 11.5927 14.5134 12.0203 14.5134C12.0417 14.5409 12.063 14.5673 12.0844 14.5947C11.3677 15.3648 10.6958 16.1756 9.90984 16.8837Z" fill="#DAB6A6"/>
<path d="M32.1454 18.7024C32.12 18.675 32.0955 18.6475 32.0701 18.6201C32.0955 18.6475 32.12 18.675 32.1454 18.7024Z" fill="#754D9D"/>
<path d="M9.8905 29.724C9.89356 26.0776 9.89661 22.4311 9.9017 18.7847C9.9017 18.354 9.90883 17.9242 9.9129 17.4934C10.2092 18.7746 11.2282 19.2927 12.3003 19.7703C12.9671 20.0669 13.6512 20.3351 14.1888 20.8736C14.5665 21.2526 14.766 21.7006 14.8352 22.2076C14.8749 22.5002 14.9523 22.488 15.1437 22.3275C15.8126 21.7667 16.5761 21.3369 17.2755 20.8167C17.3234 20.7812 17.3906 20.772 17.4496 20.7507C17.6553 21.0717 17.9251 21.3298 18.2234 21.5665C19.0755 22.2452 19.6914 22.295 20.5313 21.7382C20.9334 21.472 21.2959 21.1652 21.5524 20.7497C22.3618 21.218 23.1345 21.7403 23.8583 22.3326C24.0477 22.488 24.1251 22.55 24.1607 22.232C24.2686 21.2536 24.8805 20.6501 25.7204 20.2356C26.3903 19.9044 27.0693 19.5914 27.7351 19.2511C27.9265 19.1535 27.9561 19.2155 27.9561 19.3821C27.9561 19.4705 27.9561 19.5599 27.9561 19.6483C27.9561 23.246 27.9591 26.8436 27.953 30.4413C27.953 30.9523 28.01 31.4491 28.1892 31.9266C28.2381 32.0587 28.2472 32.1339 28.0874 32.1745C27.2689 32.3859 26.4544 32.6104 25.6064 32.6917C24.3277 32.8136 23.4501 31.9998 23.2414 30.744C23.1457 30.172 23.105 29.5949 23.0693 29.0158C23.0184 28.1949 23.0062 27.375 23.0093 26.553C23.0093 26.4342 22.94 26.2675 23.0704 26.2046C23.2037 26.1395 23.278 26.3153 23.3788 26.3793C23.728 26.6018 23.9469 26.9472 24.1872 27.2734C24.5089 27.7103 25.022 27.6666 25.2337 27.1657C25.8151 25.788 25.6919 24.1228 24.5007 23.0072C24.5812 23.309 24.6667 23.6087 24.7196 23.9155C24.8214 24.4967 24.6901 25.0423 24.5486 25.5919C24.4977 25.79 24.3877 25.8164 24.2534 25.6783C23.5051 24.9051 22.489 24.6023 21.5616 24.1472C20.9599 23.8515 20.3348 23.6046 19.7219 23.3323C19.6018 23.2785 19.4847 23.2378 19.3585 23.2988C17.98 23.9633 16.51 24.4398 15.2211 25.2861C14.6011 25.6925 14.1888 26.2838 13.8884 26.9544C13.8039 27.1433 13.7887 27.31 13.9862 27.4502C14.1796 27.5883 14.3679 27.6412 14.5817 27.503C14.8027 27.3608 14.9208 27.1291 15.0694 26.9279C15.2679 26.6577 15.5214 26.4535 15.782 26.2533C15.9622 26.1151 15.9979 26.2107 15.9979 26.3742C15.9989 26.7288 16.005 27.0834 15.9979 27.438C15.9714 28.7781 16.0437 30.1172 16.1638 31.4481C16.3084 33.0453 16.5619 34.6272 17.3458 36.0719C17.7011 36.7272 18.2162 37.2372 18.8128 37.7981C17.8813 37.7178 17.0353 37.6416 16.1964 37.4821C14.9462 37.2433 13.7367 36.8918 12.6433 36.2192C12.3644 36.0475 12.1028 35.8464 11.8432 35.6462C11.7393 35.5659 11.6477 35.4857 11.5082 35.4999C11.1753 35.1118 10.9483 34.6607 10.7426 34.1994C10.1063 32.775 9.92817 31.2622 9.89254 29.724H9.8905Z" fill="#F2F0F3"/>
<path d="M36.637 33.6812C36.8549 33.9169 37.1522 34.0683 37.3344 34.3426C37.3588 34.3731 37.3843 34.4036 37.4087 34.4341V34.431C37.3711 34.8648 37.5838 35.2662 37.5604 35.704C37.5329 36.2141 37.4209 36.3045 36.9679 36.084C35.5151 35.3789 33.9687 35.4307 32.4253 35.5577C30.6386 35.704 28.9425 36.2882 27.226 36.7526C25.9321 37.1031 24.6279 37.3967 23.3075 37.6141C22.8229 37.6944 22.3312 37.7543 21.8415 37.7767C21.194 37.8051 20.6422 37.4892 20.0996 37.1925C18.5511 36.3451 17.9179 34.9024 17.6002 33.2738C17.3162 31.8219 17.2124 30.3508 17.2144 28.8725C17.2164 27.8738 17.0953 26.8781 17.134 25.8784C17.1431 25.6498 17.191 25.4974 17.415 25.4029C18.0441 25.1367 18.6692 24.8593 19.2923 24.5779C19.4287 24.5159 19.5407 24.4996 19.6852 24.5657C20.3185 24.8552 20.9558 25.1346 21.5961 25.409C21.8018 25.4974 21.867 25.6345 21.8649 25.853C21.8558 26.8283 21.8344 27.8047 21.87 28.779C21.9067 29.7727 21.9382 30.7775 22.2956 31.7224C22.7578 32.9466 23.6211 33.6832 24.9578 33.8377C25.872 33.9433 26.7333 33.7046 27.6017 33.5024C28.3775 33.3215 29.1451 33.1112 29.9147 32.907C30.0318 32.8755 30.1703 32.8704 30.2446 32.7445C30.662 32.8156 31.0458 32.6215 31.451 32.5921C33.2998 32.3828 35.0519 32.6388 36.637 33.6812Z" fill="#F2F0F3"/>
<path d="M21.5514 20.7507C21.2949 21.1662 20.9314 21.473 20.5303 21.7392C19.6904 22.296 19.0745 22.2452 18.2223 21.5675C17.9251 21.3308 17.6553 21.0727 17.4486 20.7517C17.2705 20.2904 17.3947 19.8586 17.5779 19.4339C17.9719 18.5185 18.3639 17.6021 18.766 16.6897C18.9044 16.3738 19.1213 16.1228 19.5 16.1228C19.8797 16.1228 20.0976 16.3727 20.2351 16.6887C20.6565 17.661 21.0607 18.6404 21.4842 19.6117C21.6481 19.9887 21.6888 20.3615 21.5514 20.7507Z" fill="#967B6F"/>
<path d="M9.89046 29.7239C9.9261 31.2631 10.1043 32.7749 10.7405 34.1993C10.9462 34.6606 11.1732 35.1117 11.5061 35.4998C11.6334 35.7569 11.835 35.957 12.0264 36.1643C11.443 36.335 10.8373 36.3756 10.2386 36.4457C8.77772 36.6164 7.31273 36.7546 5.84264 36.5605C4.2453 36.3502 2.80677 35.7823 1.65534 34.6139C1.56677 34.5245 1.40897 34.4655 1.43748 34.2918C1.49856 34.306 1.56372 34.3101 1.61869 34.3365C2.78132 34.8851 3.98671 35.2773 5.26744 35.4521C6.71003 35.6481 8.13838 35.6126 9.57181 35.3799C9.90574 35.3251 9.93221 35.2357 9.78866 34.9532C9.32951 34.0439 9.07907 33.0716 8.89378 32.0718C8.76347 31.3708 8.81132 30.6627 8.69831 29.9647C9.09536 29.8844 9.4924 29.8041 9.88945 29.7239H9.89046Z" fill="#967B6F"/>
<path d="M13.1839 13.3898C13.2287 13.3827 13.2735 13.3756 13.3183 13.3674C14.5339 13.3715 15.7505 13.3746 16.966 13.3807C17.2093 13.3817 17.3957 13.2537 17.5881 13.1307C17.9077 12.9265 18.2121 12.9773 18.4239 13.2608C18.6051 13.5026 18.5288 13.8917 18.261 14.1051C17.8375 14.4434 17.3346 14.5704 16.8123 14.5887C15.2954 14.6425 13.7836 14.4495 12.2086 14.5358C12.4906 14.0624 12.9722 13.8368 13.1829 13.3888L13.1839 13.3898Z" fill="#F2F0F3"/>
<path d="M25.6837 13.3665C25.7285 13.3737 25.7733 13.3818 25.817 13.3889C26.0329 13.8288 26.4859 14.0645 26.7659 14.4709C26.7241 14.4913 26.6936 14.5187 26.6651 14.5177C25.2103 14.4689 23.7575 14.6284 22.3037 14.5908C21.7295 14.5756 21.1757 14.475 20.7216 14.0676C20.4783 13.8491 20.4019 13.4946 20.5781 13.2599C20.7827 12.9876 21.1003 12.9083 21.3793 13.1136C21.6857 13.3401 22.0135 13.3889 22.378 13.3838C23.4796 13.3686 24.5811 13.3706 25.6837 13.3665Z" fill="#F2F0F3"/>
<path d="M31.4511 32.5922C31.0459 32.6217 30.6621 32.8158 30.2447 32.7446C29.1859 31.9928 29.0301 30.9037 29.1116 29.7251C29.5107 29.8033 29.9108 29.8805 30.3098 29.9588L30.3109 29.9598C30.3343 30.5541 30.2131 31.1627 30.5796 31.7154C30.8158 32.071 31.1681 32.2935 31.4511 32.5922Z" fill="#967B6F"/>
<path d="M15.497 16.7294C15.1926 16.7294 14.8882 16.7386 14.5838 16.7274C14.2305 16.7132 14.0066 16.4856 14.0025 16.1574C13.9984 15.815 14.2031 15.5844 14.5645 15.5773C15.1855 15.5641 15.8075 15.5641 16.4296 15.5773C16.79 15.5854 16.9976 15.8181 16.9936 16.1574C16.9895 16.4825 16.7625 16.7142 16.4102 16.7274C16.1058 16.7396 15.8014 16.7294 15.497 16.7294Z" fill="#967B6F"/>
<path d="M23.4989 16.7295C23.1945 16.7295 22.8891 16.7396 22.5857 16.7264C22.2355 16.7122 22.0095 16.4775 22.0075 16.1524C22.0044 15.813 22.2121 15.5834 22.5756 15.5763C23.1966 15.5631 23.8186 15.5631 24.4407 15.5763C24.801 15.5844 25.0057 15.8181 24.9986 16.1605C24.9924 16.4877 24.7685 16.7132 24.4121 16.7264C24.1077 16.7376 23.8033 16.7285 23.4989 16.7285V16.7295Z" fill="#967B6F"/>
<path d="M8.6993 29.9657C8.8123 30.6627 8.76445 31.3719 8.89477 32.0729C9.08005 33.0726 9.3305 34.046 9.78964 34.9543C9.93217 35.2367 9.90672 35.3271 9.5728 35.381C8.13936 35.6147 6.71102 35.6502 5.26842 35.4531C3.98668 35.2784 2.78129 34.8862 1.61968 34.3375C1.5647 34.3111 1.49853 34.3071 1.43846 34.2928H1.44763C1.42014 34.2288 1.36211 34.2166 1.30306 34.2085C0.586344 33.3409 0.156721 32.3553 0.0762939 31.2276C0.29416 29.7412 0.931468 28.4173 1.67974 27.1392C2.75889 25.2942 4.09358 23.633 5.44149 21.983C5.47203 21.9454 5.5209 21.9221 5.56061 21.8916C5.56977 22.0623 5.49036 22.2106 5.43844 22.3651C4.9518 23.8322 4.57512 25.3145 4.63926 26.8832C4.68202 27.948 5.12793 28.7668 5.99328 29.3754C6.80875 29.9495 7.73417 30.0053 8.68403 29.9525L8.70032 29.9657H8.6993Z" fill="#B49689"/>
<path d="M1.30103 34.2085C1.36109 34.2176 1.4181 34.2288 1.44559 34.2928C1.34887 34.3467 1.33462 34.2613 1.30103 34.2085Z" fill="#754D9D"/>
<path d="M8.68305 29.9516C7.7332 30.0054 6.80778 29.9485 5.99231 29.3745C5.12797 28.7659 4.68206 27.947 4.63828 26.8822C4.57516 25.3135 4.95083 23.8312 5.43746 22.3641C5.48837 22.2097 5.56778 22.0613 5.55963 21.8906C5.61461 21.7901 5.66958 21.6885 5.72354 21.5879C5.74187 21.5645 5.75917 21.5411 5.7775 21.5188L5.78972 21.5025C6.28551 21.085 6.64183 20.5424 7.07757 20.07C7.59678 19.5071 8.10378 18.9341 8.68305 18.292V29.9516Z" fill="#DAB6A6"/>
<path d="M5.77747 21.5188C5.75914 21.5422 5.74184 21.5655 5.72351 21.5879C5.74184 21.5645 5.75914 21.5412 5.77747 21.5188Z" fill="#9C66D5"/>
<path d="M35.1293 22.2697C35.1099 22.2514 35.1008 22.23 35.1028 22.2036C35.1181 22.2168 35.1344 22.229 35.1486 22.2432C35.1496 22.2443 35.1364 22.2605 35.1293 22.2697Z" fill="#F2F0F3"/>
<path d="M33.2734 21.591C33.3294 21.6916 33.3844 21.7932 33.4404 21.8938C33.4811 22.0512 33.5137 22.2128 33.5646 22.3672C34.0411 23.8242 34.4157 25.2943 34.3628 26.8488C34.32 28.1076 33.7306 28.9956 32.6453 29.5909C31.9113 29.9933 31.1121 29.973 30.3129 29.9608L30.3119 29.9597C30.3119 26.1051 30.3119 22.2514 30.3119 18.2778C30.6876 18.6913 30.9909 19.0327 31.3025 19.366C31.955 20.065 32.516 20.8453 33.2113 21.5067L33.2236 21.5219C33.2409 21.5453 33.2582 21.5686 33.2755 21.592L33.2734 21.591Z" fill="#DAB6A6"/>
<path d="M30.3108 29.9596C31.11 29.9728 31.9092 29.9921 32.6432 29.5898C33.7295 28.9944 34.3179 28.1064 34.3607 26.8476C34.4136 25.2931 34.039 23.823 33.5625 22.366C33.5116 22.2116 33.479 22.0511 33.4383 21.8926C34.6457 23.2896 35.7544 24.7567 36.6442 26.3802C37.1023 27.2154 37.4831 28.082 37.6561 29.0218C37.9208 30.4595 37.8811 31.8605 37.0636 33.1508C36.9394 33.3469 36.7562 33.4861 36.636 33.6802C35.0509 32.6377 33.2988 32.3817 31.45 32.591C31.167 32.2923 30.8147 32.0708 30.5786 31.7142C30.2121 31.1615 30.3332 30.5529 30.3098 29.9586L30.3108 29.9596Z" fill="#B49689"/>
<path d="M33.2734 21.5909C33.256 21.5675 33.2387 21.5441 33.2214 21.5208C33.2387 21.5441 33.256 21.5675 33.2734 21.5909Z" fill="#9C66D5"/>
<path d="M37.4088 34.433C37.3844 34.4025 37.3589 34.372 37.3345 34.3416C37.3589 34.372 37.3844 34.4025 37.4088 34.433Z" fill="#D9CFF0"/>
</g>
<defs>
<clipPath id="clip0_3_3398">
<rect width="39" height="39" fill="white"/>
</clipPath>
</defs>
</svg>
