<svg width="18" height="18" viewBox="0 0 18 18" fill="none" xmlns="http://www.w3.org/2000/svg">
    <mask id="mask0_336_29" style="mask-type:alpha" maskUnits="userSpaceOnUse" x="0" y="0"
        width="18" height="18">
        <rect width="18" height="18" fill="#D9D9D9" />
    </mask>
    <g mask="url(#mask0_336_29)">
        <path
            d="M7.16247 13.1813C7.06247 13.1813 6.96872 13.1655 6.88122 13.134C6.79372 13.103 6.71247 13.05 6.63747 12.975L3.41247 9.75005C3.27497 9.61255 3.20922 9.4343 3.21522 9.2153C3.22172 8.9968 3.29372 8.8188 3.43122 8.6813C3.56872 8.5438 3.74372 8.47505 3.95622 8.47505C4.16872 8.47505 4.34372 8.5438 4.48122 8.6813L7.16247 11.3625L13.5187 5.0063C13.6562 4.8688 13.8345 4.80005 14.0535 4.80005C14.272 4.80005 14.45 4.8688 14.5875 5.0063C14.725 5.1438 14.7937 5.3218 14.7937 5.5403C14.7937 5.7593 14.725 5.93755 14.5875 6.07505L7.68747 12.975C7.61247 13.05 7.53122 13.103 7.44372 13.134C7.35622 13.1655 7.26247 13.1813 7.16247 13.1813Z"
            fill="#95C1BB" />
    </g>
</svg>