<svg width="18" height="18" viewBox="0 0 18 18" fill="none" xmlns="http://www.w3.org/2000/svg">
<g clip-path="url(#clip0_3_3208)">
<path d="M14.436 0H6.87376C5.77529 0 4.88158 0.893716 4.88158 1.99218V2.23669H3.56396C2.46549 2.23669 1.57178 3.1304 1.57178 4.22887V16.0079C1.57178 17.1064 2.46549 18.0001 3.56396 18.0001H11.1262C12.2247 18.0001 13.1183 17.1064 13.1183 16.0079V15.7634H14.4359C15.5344 15.7634 16.4281 14.8697 16.4281 13.7712V1.99218C16.4282 0.893716 15.5345 0 14.436 0ZM11.8333 16.0079C11.8333 16.3978 11.5161 16.715 11.1263 16.715H3.56396C3.17408 16.715 2.85684 16.3978 2.85684 16.0079V4.22879C2.85684 3.8389 3.17408 3.52166 3.56396 3.52166H11.1262C11.5161 3.52166 11.8332 3.8389 11.8332 4.22879V16.0079H11.8333ZM15.1431 13.7712C15.1431 14.1611 14.8259 14.4783 14.436 14.4783H13.1184V4.22879C13.1184 3.13032 12.2247 2.2366 11.1263 2.2366H6.16664V1.9921C6.16664 1.60221 6.48387 1.28497 6.87376 1.28497H14.436C14.8259 1.28497 15.1431 1.60221 15.1431 1.9921V13.7712Z" fill="white"/>
</g>
<defs>
<clipPath id="clip0_3_3208">
<rect width="18" height="18" fill="white"/>
</clipPath>
</defs>
</svg>
