<svg width="120" height="120" viewBox="0 0 120 120" fill="none" xmlns="http://www.w3.org/2000/svg">
<path d="M-6.10352e-05 122.924C1.27888 123.924 2.55452 124.925 3.93209 126.001C4.3036 125.665 4.69157 125.313 5.07623 124.958C15.4392 115.417 25.0362 105.137 34.6298 94.8365C40.8305 88.1791 47.5474 82.0022 54.0275 75.6081C55.3722 74.2819 56.8353 73.0478 58.0024 71.5801C61.1685 67.5982 65.4328 65.808 70.2723 65.0313C74.3163 64.383 78.3635 63.7677 82.3943 63.0535C83.3806 62.8791 84.3899 62.504 85.2415 61.9774C85.9417 61.5463 86.4218 60.7598 87.2667 59.8417C85.6426 59.3612 84.4393 59.019 83.2458 58.6504C81.1383 57.9988 78.9487 57.5282 76.9498 56.6331C72.5672 54.6751 69.9929 51.1703 69.0657 46.471C68.6087 44.1509 69.1644 41.9527 70.2625 39.9387C72.1069 36.5623 73.9645 33.1793 76.0358 29.9411C78.2386 26.489 81.6677 24.5276 85.3894 23.0533C91.7183 20.549 98.0144 20.5424 104.251 23.3627C109.364 25.6729 111.28 29.3849 109.854 34.828C109.14 37.5429 107.917 40.1262 106.918 42.7622C106.178 44.7137 105.316 46.6257 104.721 48.6199C104.475 49.4459 104.781 50.4365 104.833 51.3546C105.691 51.2032 106.664 51.2592 107.391 50.8643C113.957 47.3036 119.454 42.7819 121.2 34.9991C123.008 26.9398 119.266 18.2783 112.454 14.7933C108.857 12.9538 105.014 12.7892 101.171 13.4474C98.0012 13.9904 95.6308 13.0459 93.7436 10.5679C92.9479 9.52469 92.1326 8.49466 91.3633 7.43172C90.7747 6.61888 90.0284 6.22727 89.0388 6.40498C88.0886 6.5761 87.6152 7.23427 87.2996 8.11292C86.7703 9.57406 86.2442 11.0484 85.5604 12.4371C84.5609 14.4741 82.9565 15.8694 80.734 16.5243C78.6528 17.1364 76.5815 17.7814 74.5201 18.456C69.2498 20.1772 66.0706 23.6951 65.1862 29.2533C64.4892 33.6235 63.8316 38.0102 62.8848 42.3278C61.0107 50.8906 56.8123 58.3345 51.1278 64.8964C41.0179 76.5559 31.2697 88.4983 22.235 101.013C21.0218 102.695 19.6541 102.738 18.2897 101.201C17.0436 99.7991 15.048 99.9965 14.5581 101.718C13.5488 105.239 11.5136 108.158 9.36345 110.998C6.44064 114.855 3.38303 118.606 0.378029 122.397C0.285973 122.516 0.131447 122.582 0.0032196 122.674V122.921L-6.10352e-05 122.924Z" fill="white" fill-opacity="0.06"/>
<path d="M84.9951 46.7734C85.6165 46.6023 86.8461 46.4048 87.9607 45.9375C91.3734 44.5126 94.1811 42.3077 96.0222 39.0432C96.8179 37.6347 97.5116 36.0716 96.4069 34.5446C95.2957 33.0111 93.5827 33.1427 92.0211 33.5475C87.484 34.719 84.0187 37.3583 81.7337 41.4883C81.5167 41.8766 81.3655 42.3143 81.2537 42.7454C80.6224 45.1938 81.8619 46.7701 84.9951 46.7767V46.7734Z" fill="white" fill-opacity="0.06"/>
<path d="M54.153 23.9242C55.3399 23.8486 56.0994 23.3714 56.3723 22.3282C56.6748 21.1797 56.2309 20.301 55.1985 19.7679C53.4922 18.8827 51.7596 18.0435 50.0401 17.1846C47.5512 15.9407 45.0723 14.6803 42.5769 13.4495C41.15 12.7453 39.9237 13.0908 39.3351 14.3018C38.7762 15.4602 39.2267 16.6153 40.6075 17.3129C44.7665 19.4191 48.942 21.4989 53.1174 23.5754C53.4758 23.7531 53.8835 23.8354 54.1498 23.921L54.153 23.9242Z" fill="white" fill-opacity="0.06"/>
<path d="M102.111 67.6602C102.22 67.9399 102.358 68.4072 102.575 68.8383C104.593 72.9091 106.622 76.9733 108.66 81.0342C109.39 82.4855 110.538 82.9692 111.744 82.39C112.931 81.8174 113.263 80.5603 112.556 79.1387C110.482 74.9593 108.404 70.7832 106.303 66.6203C105.731 65.485 104.718 65.0012 103.683 65.3402C102.686 65.666 102.154 66.3867 102.114 67.6635L102.111 67.6602Z" fill="white" fill-opacity="0.06"/>
<path d="M43.5337 34.7766C45.5787 34.7766 47.6237 34.7931 49.6687 34.77C51.1646 34.7536 52.1378 33.8881 52.1476 32.6277C52.1575 31.3673 51.1876 30.4788 49.6917 30.4689C45.5195 30.4492 41.3507 30.4492 37.1785 30.4689C35.699 30.4755 34.7258 31.4035 34.762 32.6639C34.7982 33.8881 35.7385 34.747 37.1555 34.7635C39.2827 34.7898 41.4098 34.77 43.5337 34.77V34.7766Z" fill="white" fill-opacity="0.06"/>
<path d="M91.2647 78.3627C91.2647 80.4162 91.2482 82.4664 91.2712 84.5199C91.2877 86.0468 92.1261 86.9716 93.4313 86.9617C94.7332 86.9518 95.5585 86.0436 95.5683 84.4903C95.5881 80.3438 95.5881 76.1974 95.5683 72.0542C95.5618 70.5305 94.6971 69.6025 93.405 69.6124C92.103 69.6223 91.2877 70.5437 91.2745 72.0805C91.2581 74.1735 91.2712 76.2665 91.2712 78.3594L91.2647 78.3627Z" fill="white" fill-opacity="0.06"/>
<path d="M60.7971 15.2304C62.247 15.204 63.3944 13.8087 62.898 12.499C61.4645 8.7079 59.9455 4.94647 58.3839 1.20478C57.9236 0.102352 56.7268 -0.253059 55.6879 0.178041C54.5997 0.628887 54.0638 1.72474 54.4616 2.91931C54.8364 4.04478 55.3295 5.13076 55.7701 6.23319C56.74 8.66841 57.7197 11.1003 58.6765 13.5389C59.0743 14.5524 59.7483 15.1612 60.7971 15.2304Z" fill="white" fill-opacity="0.06"/>
<path d="M123.712 67.422C124.905 67.3331 125.691 66.7967 125.934 65.7041C126.181 64.6083 125.727 63.7428 124.711 63.2821C123.445 62.7062 122.14 62.2159 120.848 61.6992C118.606 60.8008 116.367 59.8958 114.118 59.0172C112.629 58.4347 111.455 58.8658 110.958 60.1328C110.482 61.3405 111.034 62.4528 112.471 63.0353C115.883 64.4207 119.309 65.7798 122.732 67.1422C123.07 67.2772 123.435 67.3496 123.708 67.4253L123.712 67.422Z" fill="white" fill-opacity="0.06"/>
</svg>
