<svg width="28" height="28" viewBox="0 0 28 28" fill="none" xmlns="http://www.w3.org/2000/svg">
<mask id="mask0_246_1474" style="mask-type:alpha" maskUnits="userSpaceOnUse" x="0" y="0" width="28" height="28">
<rect x="0.25" y="0.25" width="27.5" height="27.5" rx="8" fill="#D9D9D9"/>
</mask>
<g mask="url(#mask0_246_1474)">
<path d="M14.0003 24.3082C14.0003 24.9434 13.4842 25.4647 12.852 25.404C11.6908 25.2927 10.584 25.0098 9.53158 24.5554C8.13748 23.9542 6.92481 23.138 5.89355 22.1067C4.8623 21.0755 4.04609 19.8628 3.44491 18.4687C2.84296 17.0746 2.54199 15.585 2.54199 14C2.54199 12.4149 2.84296 10.9253 3.44491 9.53121C4.04609 8.13711 4.8623 6.92444 5.89355 5.89319C6.92481 4.86194 8.13748 4.04534 9.53158 3.4434C10.9257 2.84222 12.4153 2.54163 14.0003 2.54163C16.7885 2.54163 19.228 3.41513 21.3188 5.16215C23.0312 6.59314 24.2154 8.32165 24.8715 10.3477C25.1006 11.0553 24.5378 11.7369 23.7941 11.7369C23.2561 11.7369 22.7935 11.3704 22.6087 10.8651C22.2255 9.81795 21.6623 8.86228 20.9189 7.99808C20.0713 7.01426 19.0513 6.24888 17.8589 5.70195C17.6595 5.61053 17.4378 5.75984 17.4378 5.97913C17.4378 6.60933 17.2136 7.14864 16.7652 7.59704C16.3161 8.04621 15.7764 8.27079 15.1462 8.27079C13.8805 8.27079 12.8545 9.29681 12.8545 10.5625C12.8545 10.8871 12.7449 11.1591 12.5256 11.3783C12.3056 11.5983 12.0333 11.7083 11.7087 11.7083H10.5628C9.93 11.7083 9.41699 12.2213 9.41699 12.8541C9.41699 13.487 9.93 14 10.5628 14C11.1957 14 11.7087 14.513 11.7087 15.1458V16.6272C11.7087 17.0747 11.3459 17.4375 10.8984 17.4375C10.6835 17.4375 10.4775 17.3521 10.3255 17.2001L5.80057 12.6752C5.49177 12.3664 4.96525 12.5362 4.9047 12.9687C4.85734 13.3125 4.83366 13.6562 4.83366 14C4.83366 16.5017 5.71213 18.6501 7.46908 20.4453C8.96276 21.9714 10.7601 22.8557 12.8611 23.0982C13.4888 23.1707 14.0003 23.6764 14.0003 24.3082ZM23.6253 24.0833L21.7598 22.2178C21.17 21.6279 20.2631 21.5278 19.4717 21.7916C19.0133 21.9444 18.5264 22.0208 18.0107 22.0208C16.5785 22.0208 15.3608 21.5197 14.3578 20.5175C13.3556 19.5145 12.8545 18.2968 12.8545 16.8645C12.8545 15.4323 13.3556 14.2146 14.3578 13.2116C15.3608 12.2094 16.5785 11.7083 18.0107 11.7083C19.443 11.7083 20.6607 12.2094 21.6637 13.2116C22.6659 14.2146 23.167 15.4323 23.167 16.8645C23.167 17.3802 23.0906 17.8671 22.9378 18.3255C22.674 19.1169 22.7741 20.0238 23.364 20.6136L25.2295 22.4791C25.4396 22.6892 25.5446 22.9566 25.5446 23.2812C25.5446 23.6059 25.4396 23.8732 25.2295 24.0833C25.0194 24.2934 24.7521 24.3984 24.4274 24.3984C24.1028 24.3984 23.8354 24.2934 23.6253 24.0833ZM18.0107 19.7291C18.8128 19.7291 19.4908 19.4522 20.0446 18.8984C20.5984 18.3446 20.8753 17.6666 20.8753 16.8645C20.8753 16.0625 20.5984 15.3845 20.0446 14.8307C19.4908 14.2769 18.8128 14 18.0107 14C17.2087 14 16.5307 14.2769 15.9769 14.8307C15.4231 15.3845 15.1462 16.0625 15.1462 16.8645C15.1462 17.6666 15.4231 18.3446 15.9769 18.8984C16.5307 19.4522 17.2087 19.7291 18.0107 19.7291Z" fill="white"/>
</g>
</svg>
