<svg width="129" height="122" viewBox="0 0 129 122" fill="none" xmlns="http://www.w3.org/2000/svg">
<g opacity="0.06">
<path d="M9.46602 46.794C10.4014 47.2502 11.1746 46.8189 11.8564 46.2092C12.1225 45.9728 12.2929 45.6328 12.5216 45.3549C14.5503 42.9329 16.8077 40.8592 20.096 40.3076C21.8379 40.0132 22.4241 40.656 21.867 42.3398C21.3557 43.8784 20.3704 45.1558 19.435 46.4415C17.3356 49.3238 14.9411 51.9988 13.2699 55.1757C12.0269 57.5355 10.6758 59.8621 10.3182 62.5786C9.92331 63.5159 9.42445 64.42 9.14592 65.3904C6.29823 75.4476 5.6206 85.6126 7.79482 95.8896C9.1376 102.235 11.6901 107.975 16.5998 112.437C17.6682 113.404 18.7366 114.411 20.2207 114.76C22.1206 115.204 23.0477 114.266 22.474 112.412C21.8628 110.438 21.2143 108.485 20.994 106.411C20.7446 104.027 21.7506 101.654 23.4925 100.808C25.1678 99.9913 27.1675 100.647 28.9842 102.608C29.1588 102.799 29.3084 103.011 29.4747 103.21C31.3704 105.466 32.4804 108.157 33.5862 110.824C36.7332 118.401 42.2665 123.374 49.9781 126.04C57.4985 128.645 65.1229 128.45 72.8262 127.011C77.1996 126.194 81.5314 125.17 85.9588 124.643C91.33 124.008 96.7219 124.162 102.11 124.029C105.548 123.942 108.873 123.175 112.07 121.864C116.149 120.193 119.034 117.115 121.736 113.802C123.457 111.687 125.319 109.787 128.346 109.663C129.56 109.609 129.759 108.721 129.314 107.751C128.741 106.503 127.677 105.777 126.375 105.408C124.617 104.906 122.792 104.927 120.988 104.769C118.556 104.553 117.579 102.716 118.689 100.555C118.876 100.19 119.142 99.8669 119.366 99.5185C123.395 93.2354 126.883 86.6785 129.04 79.512C130.757 73.8053 131.422 67.9037 131.834 61.9731C132.262 56.847 131.821 51.779 130.882 46.7359C130.121 42.6716 129.231 38.6446 127.544 34.8456C126.783 33.137 125.157 32.772 123.765 33.9249C121.615 35.7083 120.152 35.8576 117.94 34.1655C114.76 31.7352 112.602 28.5335 111.759 24.606C111.185 21.9393 110.852 19.2187 110.486 16.5146C109.651 10.2771 106.425 6.06343 100.28 4.193C94.8179 2.52994 89.2389 1.48067 83.5393 1.19036C80.9494 1.05765 78.3719 1.41017 75.8693 2.11521C74.9838 2.36405 74.2646 2.89905 74.1066 3.8861C73.9445 4.91878 74.2147 5.83118 75.0628 6.51964C75.9815 7.26615 76.9876 7.60622 78.2056 7.58134C81.8598 7.50669 84.9029 8.96239 87.6259 11.3346C90.4819 13.8189 92.1365 17.0662 93.6206 20.3965C95.8863 25.4769 97.5616 30.8145 100.451 35.6212C103.619 40.8882 104.828 46.6074 104.222 52.708C104.155 53.3633 104.097 54.0683 103.818 54.6448C102.613 57.1539 101.307 59.6174 99.2536 61.5791L98.6176 61.6537C99.0957 59.0202 99.6403 56.4074 99.3243 53.6868C98.8462 49.5934 97.4702 45.8567 95.0881 42.514C93.9698 40.9463 92.0492 41.191 91.226 42.9204C90.7812 43.8619 90.5276 44.8655 90.5401 45.9189C90.5692 48.399 90.59 50.8832 90.6149 53.3633C90.6316 54.8729 90.1244 56.1627 89.2015 57.3654C87.9626 58.987 86.1168 59.9741 84.9029 61.604C83.7722 63.0597 82.4003 64.308 81.5189 65.9711C80.4755 67.9286 79.3738 69.8612 78.1765 71.7317C76.0688 75.0288 73.3209 77.4881 69.2219 78.0024C67.4592 78.2263 65.8338 77.5171 65.1021 76.1651C64.3081 74.7011 64.6157 73.0671 65.9335 71.6487C66.3202 71.234 66.6694 70.7861 67.031 70.3548C67.3595 70.0271 67.7294 69.7327 68.0121 69.3718C73.5828 62.338 76.0314 54.2881 75.5492 45.4005C75.2956 40.6643 73.4581 36.4009 70.0866 33.0457C65.6675 28.6537 60.525 25.3525 54.4471 23.5775C47.7582 21.6282 41.0359 20.5955 34.1017 22.0264C25.118 23.8802 18.2128 29.0477 12.2763 35.7124C10.0938 38.1635 8.87985 41.1205 8.50154 44.3927C8.3893 45.3507 8.44334 46.2963 9.46602 46.794ZM115.072 48.7888C116.573 47.9303 118.028 48.287 118.963 49.7303C120.406 51.9449 119.636 56.0176 117.483 57.5811C115.853 58.7672 113.372 57.7594 113.035 55.748C112.914 55.0388 112.943 54.3089 112.902 53.5872C112.848 51.6339 113.197 49.8671 115.072 48.7888ZM35.8602 94.6786C35.0911 95.4085 34.2098 95.0892 33.37 94.8155C32.1062 94.4007 31.1293 93.5547 30.2105 92.6257C28.3647 90.7511 27.1425 88.4784 26.0034 86.1476C25.8496 85.8366 25.833 85.4592 25.7997 85.314C25.8455 83.4229 27.4418 82.5519 29.0715 83.3399C30.4517 84.0076 31.5242 85.0735 32.5053 86.2098C34.0601 88.0056 35.59 89.8221 36.1886 92.2193C36.4048 93.1026 36.6168 93.9611 35.8602 94.6786ZM27.4003 52.003C29.5246 44.2268 34.0684 38.7234 42.0212 36.3843C47.8912 34.6549 55.9562 37.6865 58.9245 43.5384C61.8179 49.2409 61.0904 57.2742 57.087 61.7533C56.1807 62.7694 55.1372 63.5988 53.8651 64.1255C52.7177 64.5983 51.9237 64.308 51.6535 63.0514C51.5121 62.4002 51.4581 61.7284 51.4248 61.0607C51.3167 59.1073 50.2359 57.7677 48.5564 57.5604C46.4029 57.2949 44.9396 58.1161 44.4324 60.1731C43.6301 63.4246 43.7215 66.7259 44.2287 70.0188C44.5613 73.7887 45.8209 77.289 47.2344 80.7645C48.9762 85.0652 51.1879 89.1752 52.5889 93.6169C52.9921 94.8943 53.3455 96.1882 53.2415 97.5403C53.1293 98.9918 51.5828 99.6554 50.4188 98.7596C49.7162 98.2204 49.1799 97.5112 48.7393 96.7398C44.2827 88.9844 38.9573 81.9257 32.4139 75.7545C28.6848 72.2418 26.5605 67.7917 26.3069 62.5786C26.3485 59.0202 26.4524 55.4701 27.4003 52.003Z" fill="white"/>
<path d="M33.8024 5.71528C36.4297 3.16884 39.7763 2.01589 43.2226 1.2445C47.409 0.307209 51.641 -0.23609 55.9853 0.0998402C59.3526 0.36112 61.8636 1.85 63.9588 4.31764C64.861 5.3835 65.7423 6.47423 66.6943 7.49032C68.0288 8.91699 69.6958 9.8128 71.5624 10.41C74.2521 11.2768 76.8046 12.4173 78.4135 14.9264C79.7064 16.942 78.8209 18.6673 76.4263 18.7668C74.356 18.8498 72.2816 18.771 70.6353 19.0405C64.6656 18.8705 59.3402 17.7963 54.3765 15.1877C51.6826 13.7693 49.0344 12.2058 45.8833 11.9528C43.6675 11.7745 41.4475 11.6127 39.2442 11.3224C37.3859 11.0777 35.6149 10.4722 34.0684 9.36075C32.6051 8.30734 32.4929 6.98435 33.8024 5.71528Z" fill="white"/>
<path d="M16.7369 7.01296C18.142 5.92222 19.7634 5.47846 21.5551 5.95955C23.8333 6.5692 25.0222 7.92537 24.9017 9.7875C24.7853 11.5501 22.9228 13.2837 20.8941 13.491C20.5865 13.5242 20.2747 13.4993 20.1458 13.4993C19.0608 13.5947 18.2169 13.3749 17.4187 12.9809C14.9493 11.7575 14.571 8.69676 16.7369 7.01296Z" fill="white"/>
<path d="M23.0602 124.336C23.11 122.59 25.3383 121.279 26.8183 122.266C29.6286 124.153 31.5824 126.808 32.9086 129.889C33.3867 130.996 32.4513 132.058 31.2166 131.996C28.4521 131.867 23.4093 127.314 23.0768 124.643C23.0643 124.539 23.0643 124.435 23.0602 124.336Z" fill="white"/>
<path d="M118.859 21.4044C118.859 19.0902 120.58 17.2696 122.767 17.2654C125.003 17.2654 126.725 19.1275 126.708 21.5288C126.687 23.8223 124.929 25.6263 122.742 25.5973C120.568 25.5683 118.859 23.7227 118.859 21.4044Z" fill="white"/>
<path d="M4.81606e-05 55.4658C0.0291491 53.3714 1.38024 51.8494 3.23851 51.8203C5.18409 51.783 6.2816 53.0396 6.26082 55.2833C6.23588 57.8215 5.09679 59.2149 3.06806 59.1693C1.17237 59.1279 -0.0332093 57.6763 4.81606e-05 55.4658Z" fill="white"/>
</g>
</svg>
