<svg width="18" height="18" viewBox="0 0 18 18" fill="none" xmlns="http://www.w3.org/2000/svg">
    <mask id="mask0_336_39" style="mask-type:alpha" maskUnits="userSpaceOnUse" x="0" y="0"
        width="18" height="18">
        <rect width="18" height="18" fill="#D9D9D9" />
    </mask>
    <g mask="url(#mask0_336_39)">
        <path
            d="M6.5 13.8H11.5V12C11.5 11.34 11.2552 10.775 10.7656 10.305C10.276 9.835 9.6875 9.6 9 9.6C8.3125 9.6 7.72396 9.835 7.23438 10.305C6.74479 10.775 6.5 11.34 6.5 12V13.8ZM9 8.4C9.6875 8.4 10.276 8.165 10.7656 7.695C11.2552 7.225 11.5 6.66 11.5 6V4.2H6.5V6C6.5 6.66 6.74479 7.225 7.23438 7.695C7.72396 8.165 8.3125 8.4 9 8.4ZM13.375 15H4.625C4.44792 15 4.29938 14.9424 4.17938 14.8272C4.05979 14.7124 4 14.57 4 14.4C4 14.23 4.05979 14.0876 4.17938 13.9728C4.29938 13.8576 4.44792 13.8 4.625 13.8H5.25V12C5.25 11.39 5.39854 10.8174 5.69562 10.2822C5.99229 9.7474 6.40625 9.32 6.9375 9C6.40625 8.68 5.99229 8.2524 5.69562 7.7172C5.39854 7.1824 5.25 6.61 5.25 6V4.2H4.625C4.44792 4.2 4.29938 4.1424 4.17938 4.0272C4.05979 3.9124 4 3.77 4 3.6C4 3.43 4.05979 3.2874 4.17938 3.1722C4.29938 3.0574 4.44792 3 4.625 3H13.375C13.5521 3 13.7004 3.0574 13.82 3.1722C13.94 3.2874 14 3.43 14 3.6C14 3.77 13.94 3.9124 13.82 4.0272C13.7004 4.1424 13.5521 4.2 13.375 4.2H12.75V6C12.75 6.61 12.6017 7.1824 12.305 7.7172C12.0079 8.2524 11.5938 8.68 11.0625 9C11.5938 9.32 12.0079 9.7474 12.305 10.2822C12.6017 10.8174 12.75 11.39 12.75 12V13.8H13.375C13.5521 13.8 13.7004 13.8576 13.82 13.9728C13.94 14.0876 14 14.23 14 14.4C14 14.57 13.94 14.7124 13.82 14.8272C13.7004 14.9424 13.5521 15 13.375 15Z"
            fill="#FF8B3E" />
    </g>
</svg>