<svg width="18" height="18" viewBox="0 0 18 18" fill="none" xmlns="http://www.w3.org/2000/svg">
    <mask id="mask0_367_7" style="mask-type:alpha" maskUnits="userSpaceOnUse" x="0" y="0" width="18"
        height="18">
        <rect width="18" height="18" fill="#D9D9D9" />
    </mask>
    <g mask="url(#mask0_367_7)">
        <path
            d="M11.8141 15C11.7298 15 11.6509 14.9869 11.5772 14.9606C11.5034 14.9347 11.435 14.8905 11.3718 14.8279L9.57108 13.0441C9.45524 12.9293 9.39733 12.7833 9.39733 12.606C9.39733 12.4286 9.45524 12.2826 9.57108 12.1679C9.68692 12.0531 9.83435 11.9957 10.0134 11.9957C10.1924 11.9957 10.3398 12.0531 10.4557 12.1679L11.8141 13.5135L14.9417 10.4154C15.0575 10.3006 15.2049 10.2432 15.384 10.2432C15.563 10.2432 15.7104 10.3006 15.8262 10.4154C15.9421 10.5301 16 10.6761 16 10.8535C16 11.0308 15.9421 11.1769 15.8262 11.2916L12.2564 14.8279C12.1932 14.8905 12.1247 14.9347 12.051 14.9606C11.9773 14.9869 11.8983 15 11.8141 15ZM4.26367 5.25178L9.31835 8.38122L14.373 5.25178H4.26367ZM4.26367 14.0142C3.91616 14.0142 3.61878 13.8918 3.37152 13.6468C3.12384 13.4015 3 13.1067 3 12.7624V5.25178C3 4.90754 3.12384 4.61295 3.37152 4.36802C3.61878 4.12267 3.91616 4 4.26367 4H14.373C14.7205 4 15.0181 4.12267 15.2658 4.36802C15.5131 4.61295 15.6367 4.90754 15.6367 5.25178V7.9744L14.373 9.22617V6.50356L9.65006 9.42959C9.59741 9.46088 9.54202 9.48425 9.48389 9.49969C9.42618 9.51554 9.371 9.52347 9.31835 9.52347C9.26569 9.52347 9.21051 9.51554 9.15281 9.49969C9.09468 9.48425 9.03929 9.46088 8.98663 9.42959L4.26367 6.50356V12.7624H7.51762L8.78129 14.0142H4.26367Z"
            fill="#A4ABBD" />
    </g>
</svg>