<svg width="20" height="20" viewBox="0 0 20 20" fill="none" xmlns="http://www.w3.org/2000/svg">
<path d="M5.6407 4.29688C8.75598 4.29688 11.2812 6.83973 11.2812 9.97628C11.2812 13.1128 8.75578 15.6555 5.6407 15.6555C2.52561 15.6555 0 13.1128 0 9.97628C0 6.83973 2.52542 4.29688 5.6407 4.29688ZM14.6485 4.62956C16.2061 4.62956 17.4688 7.02313 17.4688 9.97628H17.469C17.469 12.9287 16.2063 15.323 14.6487 15.323C13.091 15.323 11.8283 12.9287 11.8283 9.97628C11.8283 7.0239 13.0908 4.62956 14.6485 4.62956ZM19.0081 5.18646C19.5558 5.18646 20 7.3309 20 9.97628C20 12.6209 19.556 14.7661 19.0081 14.7661C18.4602 14.7661 18.0163 12.6215 18.0163 9.97628C18.0163 7.33109 18.4604 5.18646 19.0081 5.18646Z" fill="white"/>
</svg>
