<svg width="18" height="18" viewBox="0 0 18 18" fill="none" xmlns="http://www.w3.org/2000/svg">
<mask id="mask0_336_44" style="mask-type:alpha" maskUnits="userSpaceOnUse" x="0" y="0" width="18" height="18">
<rect width="18" height="18" fill="#D9D9D9"/>
</mask>
<g mask="url(#mask0_336_44)">
<path d="M6.35625 13.6312C6.21875 13.2062 6.09375 12.775 5.98125 12.3375C5.86875 11.9 5.78125 11.4562 5.71875 11.0062L4.8 11.6437C4.7625 11.6687 4.73425 11.6967 4.71525 11.7277C4.69675 11.7592 4.6875 11.7937 4.6875 11.8312V14.2312C4.6875 14.2562 4.69675 14.272 4.71525 14.2785C4.73425 14.2845 4.75625 14.2875 4.78125 14.2875L6.35625 13.6312ZM8.79375 3.59998C8.11875 4.36248 7.6095 5.23423 7.266 6.21523C6.922 7.19673 6.75 8.24998 6.75 9.37498C6.75 10.1375 6.81875 10.878 6.95625 11.5965C7.09375 12.3155 7.275 12.95 7.5 13.5H10.5C10.725 12.95 10.9063 12.3155 11.0438 11.5965C11.1813 10.878 11.25 10.1375 11.25 9.37498C11.25 8.24998 11.078 7.19673 10.734 6.21523C10.3905 5.23423 9.88125 4.36248 9.20625 3.59998C9.16875 3.57498 9.1345 3.55298 9.1035 3.53398C9.072 3.51548 9.0375 3.50623 9 3.50623C8.9625 3.50623 8.92825 3.51548 8.89725 3.53398C8.86575 3.55298 8.83125 3.57498 8.79375 3.59998ZM9 9.56248C8.6375 9.56248 8.328 9.43448 8.0715 9.17848C7.8155 8.92198 7.6875 8.61248 7.6875 8.24998C7.6875 7.88748 7.8155 7.57798 8.0715 7.32148C8.328 7.06548 8.6375 6.93748 9 6.93748C9.3625 6.93748 9.672 7.06548 9.9285 7.32148C10.1845 7.57798 10.3125 7.88748 10.3125 8.24998C10.3125 8.61248 10.1845 8.92198 9.9285 9.17848C9.672 9.43448 9.3625 9.56248 9 9.56248ZM11.6437 13.65L13.2188 14.2875C13.2437 14.3 13.2655 14.3 13.284 14.2875C13.303 14.275 13.3125 14.2562 13.3125 14.2312V11.8312C13.3125 11.7937 13.303 11.7592 13.284 11.7277C13.2655 11.6967 13.2375 11.6687 13.2 11.6437L12.2812 11.0062C12.2188 11.4562 12.1312 11.903 12.0187 12.3465C11.9062 12.7905 11.7812 13.225 11.6437 13.65ZM9.50625 2.38123C10.4688 3.26873 11.1875 4.31248 11.6625 5.51248C12.1375 6.71248 12.375 8.05623 12.375 9.54373V9.73123L13.8187 10.7062C14.0062 10.8187 14.1562 10.978 14.2687 11.184C14.3812 11.3905 14.4375 11.6062 14.4375 11.8312V14.9812C14.4375 15.2187 14.3375 15.403 14.1375 15.534C13.9375 15.6655 13.725 15.6875 13.5 15.6L11.0812 14.625H6.91875L4.5 15.6C4.275 15.6875 4.0625 15.6625 3.8625 15.525C3.6625 15.3875 3.5625 15.2 3.5625 14.9625V11.8312C3.5625 11.6062 3.61575 11.3905 3.72225 11.184C3.82825 10.978 3.98125 10.8125 4.18125 10.6875L5.625 9.73123V9.54373C5.625 8.05623 5.8625 6.71248 6.3375 5.51248C6.8125 4.31248 7.53125 3.26873 8.49375 2.38123C8.56875 2.31873 8.65 2.27173 8.7375 2.24023C8.825 2.20923 8.9125 2.19373 9 2.19373C9.0875 2.19373 9.175 2.20923 9.2625 2.24023C9.35 2.27173 9.43125 2.31873 9.50625 2.38123Z" fill="#FEBCA8"/>
</g>
</svg>
