<svg width="27" height="27" viewBox="0 0 27 27" fill="none" xmlns="http://www.w3.org/2000/svg">
<path fill-rule="evenodd" clip-rule="evenodd" d="M25.2496 6.21693C24.3765 6.5964 23.4359 6.84859 22.4537 6.96098C23.46 6.37529 24.2296 5.44718 24.5969 4.34215C23.6564 4.88275 22.6111 5.27926 21.5035 5.49136C20.613 4.5717 19.3481 4 17.9468 4C15.2562 4 13.0778 6.11832 13.0778 8.73161C13.0778 9.10042 13.1199 9.46126 13.2024 9.80922C9.15392 9.60979 5.56476 7.72622 3.16213 4.86039C2.73113 5.58297 2.50306 6.40458 2.50306 7.24018V7.24073C2.50306 8.8816 3.36027 10.3329 4.66829 11.1792C3.87014 11.1561 3.11938 10.9398 2.46017 10.5893V10.6484C2.46017 12.9431 4.1384 14.8578 6.36839 15.2906C5.95984 15.3985 5.52856 15.458 5.08425 15.458C4.76953 15.458 4.46629 15.4265 4.16476 15.3732C4.78763 17.2525 6.58549 18.6225 8.71459 18.6625C7.0452 19.9335 4.94844 20.6904 2.66266 20.6904C2.26815 20.6904 1.88383 20.6669 1.5 20.6223C3.66074 21.9697 6.2204 22.75 8.97017 22.75C17.9288 22.75 22.832 15.5347 22.832 9.27859C22.832 9.07071 22.8272 8.86927 22.8184 8.66562C23.7698 8.00411 24.5948 7.16927 25.2478 6.21893L25.25 6.21679L25.2496 6.21706L25.2496 6.21693Z" fill="white"/>
</svg>
