<svg width="22" height="19" viewBox="0 0 22 19" fill="none" xmlns="http://www.w3.org/2000/svg">
<path d="M11 18.55C10.8167 18.55 10.6375 18.525 10.4625 18.475C10.2875 18.425 10.125 18.3584 9.975 18.275C9.29167 17.8584 8.575 17.5417 7.825 17.325C7.075 17.1084 6.3 17 5.5 17C4.8 17 4.1125 17.0917 3.4375 17.275C2.7625 17.4583 2.11667 17.7167 1.5 18.05C1.15 18.2333 0.8125 18.225 0.4875 18.025C0.1625 17.825 0 17.5333 0 17.15V5.10002C0 4.91668 0.0458333 4.74168 0.1375 4.57502C0.229167 4.40835 0.366667 4.28335 0.55 4.20002C1.31667 3.80002 2.11667 3.50002 2.95 3.30002C3.78333 3.10002 4.63333 3.00002 5.5 3.00002C6.46667 3.00002 7.4125 3.12502 8.3375 3.37502C9.2625 3.62502 10.15 4.00002 11 4.50002V16.6C11.85 16.0667 12.7417 15.6667 13.675 15.4C14.6083 15.1334 15.55 15 16.5 15C17.1 15 17.6875 15.05 18.2625 15.15C18.8375 15.25 19.4167 15.4 20 15.6V3.60002C20.25 3.68335 20.4958 3.77085 20.7375 3.86252C20.9792 3.95418 21.2167 4.06668 21.45 4.20002C21.6333 4.28335 21.7708 4.40835 21.8625 4.57502C21.9542 4.74168 22 4.91668 22 5.10002V17.15C22 17.5333 21.8375 17.825 21.5125 18.025C21.1875 18.225 20.85 18.2333 20.5 18.05C19.8833 17.7167 19.2375 17.4583 18.5625 17.275C17.8875 17.0917 17.2 17 16.5 17C15.7 17 14.925 17.1084 14.175 17.325C13.425 17.5417 12.7083 17.8584 12.025 18.275C11.875 18.3584 11.7125 18.425 11.5375 18.475C11.3625 18.525 11.1833 18.55 11 18.55ZM13.825 13.25C13.6583 13.4 13.4792 13.4292 13.2875 13.3375C13.0958 13.2459 13 13.0917 13 12.875V4.70002C13 4.66668 13.05 4.55002 13.15 4.35002L17.15 0.350016C17.3167 0.18335 17.5 0.141683 17.7 0.225016C17.9 0.30835 18 0.466683 18 0.700016V9.27502C18 9.34168 17.9417 9.46668 17.825 9.65002L13.825 13.25Z" fill="white"/>
</svg>
