<svg width="20" height="20" viewBox="0 0 20 20" fill="none" xmlns="http://www.w3.org/2000/svg">
<mask id="mask0_594_267" style="mask-type:alpha" maskUnits="userSpaceOnUse" x="0" y="0" width="20" height="20">
<rect width="20" height="20" fill="#D9D9D9"/>
</mask>
<g mask="url(#mask0_594_267)">
<path d="M9.20866 12.9167L12.667 10.7084C12.9309 10.5417 13.0628 10.3056 13.0628 10C13.0628 9.69449 12.9309 9.45837 12.667 9.29171L9.20866 7.08337C8.93088 6.88893 8.64616 6.87504 8.35449 7.04171C8.06283 7.20837 7.91699 7.45143 7.91699 7.77087V12.2292C7.91699 12.5487 8.06283 12.7917 8.35449 12.9584C8.64616 13.125 8.93088 13.1112 9.20866 12.9167ZM3.33366 16.6667C2.87533 16.6667 2.48296 16.5035 2.15658 16.1771C1.83019 15.8507 1.66699 15.4584 1.66699 15V5.00004C1.66699 4.54171 1.83019 4.14935 2.15658 3.82296C2.48296 3.49657 2.87533 3.33337 3.33366 3.33337H16.667C17.1253 3.33337 17.5177 3.49657 17.8441 3.82296C18.1705 4.14935 18.3337 4.54171 18.3337 5.00004V15C18.3337 15.4584 18.1705 15.8507 17.8441 16.1771C17.5177 16.5035 17.1253 16.6667 16.667 16.6667H3.33366Z" fill="white"/>
</g>
</svg>
