<svg width="28" height="28" viewBox="0 0 28 28" fill="none" xmlns="http://www.w3.org/2000/svg">
<mask id="mask0_246_1469" style="mask-type:alpha" maskUnits="userSpaceOnUse" x="0" y="0" width="28" height="28">
<rect x="0.25" y="0.25" width="27.5" height="27.5" rx="8" fill="#D9D9D9"/>
</mask>
<g mask="url(#mask0_246_1469)">
<path d="M14.0003 25.4583C12.4344 25.4583 10.9543 25.1573 9.56022 24.5554C8.16612 23.9542 6.94887 23.133 5.90845 22.0918C4.86727 21.0514 4.04609 19.8342 3.44491 18.4401C2.84296 17.046 2.54199 15.5659 2.54199 14C2.54199 12.4149 2.84296 10.9303 3.44491 9.54611C4.04609 8.16117 4.86727 6.9485 5.90845 5.90808C6.94887 4.8669 8.16612 4.04534 9.56022 3.4434C10.9543 2.84222 12.4344 2.54163 14.0003 2.54163C15.5854 2.54163 17.07 2.84222 18.4542 3.4434C19.8391 4.04534 21.0518 4.8669 22.0922 5.90808C23.1334 6.9485 23.9546 8.16117 24.5557 9.54611C25.1577 10.9303 25.4587 12.4149 25.4587 14C25.4587 15.5659 25.1577 17.046 24.5557 18.4401C23.9546 19.8342 23.1334 21.0514 22.0922 22.0918C21.0518 23.133 19.8391 23.9542 18.4542 24.5554C17.07 25.1573 15.5854 25.4583 14.0003 25.4583ZM12.7113 20.9609C13.2522 22.0713 14.7484 22.0713 15.2894 20.9609C15.3425 20.8519 15.3942 20.7419 15.4444 20.6308C15.8963 19.6319 15.0968 18.5833 14.0003 18.5833C12.9039 18.5833 12.1043 19.6319 12.5563 20.6308C12.6065 20.7419 12.6582 20.8519 12.7113 20.9609ZM9.06791 21.7387C9.72573 22.1582 10.3962 21.4176 10.1194 20.6882C9.98426 20.3336 9.86096 19.9724 9.74948 19.6046C9.56961 19.0112 9.03642 18.5833 8.41639 18.5833C7.38543 18.5833 6.77152 19.6922 7.48734 20.4341C7.70354 20.6582 7.9312 20.872 8.17033 21.0755C8.45549 21.3179 8.75469 21.539 9.06791 21.7387ZM17.8824 20.6882C17.6048 21.4175 18.2752 22.158 18.933 21.7383C19.2458 21.5387 19.5445 21.3177 19.8292 21.0755C20.0686 20.8719 20.2966 20.658 20.513 20.4339C21.229 19.6922 20.6152 18.5833 19.5843 18.5833C18.9642 18.5833 18.431 19.0112 18.2514 19.6047C18.1401 19.9724 18.0171 20.3336 17.8824 20.6882ZM4.9047 15.1595C4.99146 15.8316 5.59551 16.2916 6.27317 16.2916H7.87625C8.4763 16.2916 8.93306 15.7578 8.88647 15.1595C8.85821 14.7875 8.84408 14.401 8.84408 14C8.84408 13.5989 8.85821 13.2124 8.88647 12.8404C8.93306 12.2421 8.4763 11.7083 7.87625 11.7083H6.27317C5.59551 11.7083 4.99146 12.1683 4.9047 12.8404C4.85734 13.2124 4.83366 13.5989 4.83366 14C4.83366 14.401 4.85734 14.7875 4.9047 15.1595ZM11.1793 15.1595C11.2288 15.8127 11.7922 16.2916 12.4472 16.2916H15.5533C16.2084 16.2916 16.7717 15.8126 16.8225 15.1595C16.8508 14.7875 16.8649 14.401 16.8649 14C16.8649 13.5989 16.8508 13.2124 16.8225 12.8404C16.7717 12.1873 16.2084 11.7083 15.5533 11.7083H12.4472C11.7922 11.7083 11.2288 12.1872 11.1793 12.8404C11.1503 13.2124 11.1357 13.5989 11.1357 14C11.1357 14.401 11.1503 14.7875 11.1793 15.1595ZM19.113 15.1595C19.0677 15.7578 19.5243 16.2916 20.1243 16.2916H21.7275C22.4051 16.2916 23.0092 15.8316 23.096 15.1595C23.1433 14.7875 23.167 14.401 23.167 14C23.167 13.5989 23.1433 13.2124 23.096 12.8404C23.0092 12.1683 22.4051 11.7083 21.7275 11.7083H20.1243C19.5243 11.7083 19.0677 12.2421 19.113 12.8404C19.1421 13.2124 19.1566 13.5989 19.1566 14C19.1566 14.401 19.1421 14.7875 19.113 15.1595ZM18.2515 8.39523C18.431 8.98872 18.9642 9.41663 19.5843 9.41663C20.6152 9.41663 21.229 8.30776 20.513 7.56606C20.2966 7.34188 20.0686 7.12801 19.8292 6.92444C19.5442 6.68196 19.2452 6.46085 18.9321 6.2611C18.2746 5.84161 17.6047 6.58175 17.8824 7.31058C18.0172 7.66565 18.1402 8.02719 18.2515 8.39523ZM12.5563 7.36907C12.1043 8.36803 12.9039 9.41663 14.0003 9.41663C15.0968 9.41663 15.8963 8.36803 15.4444 7.36907C15.3942 7.25803 15.3425 7.14802 15.2894 7.03902C14.7484 5.92862 13.2522 5.92862 12.7113 7.03902C12.6582 7.14802 12.6065 7.25803 12.5563 7.36907ZM7.48734 7.56579C6.77152 8.30773 7.38543 9.41663 8.41639 9.41663C9.03642 9.41663 9.56963 8.9887 9.7494 8.3953C9.8609 8.02724 9.98423 7.66567 10.1194 7.31058C10.3963 6.58163 9.72635 5.84145 9.0688 6.26062C8.75525 6.46049 8.45576 6.68177 8.17033 6.92444C7.9312 7.12793 7.70354 7.34171 7.48734 7.56579Z" fill="white"/>
</g>
</svg>
