<?xml version="1.0" encoding="UTF-8"?>
<svg id="uuid-d1018ecf-c970-4749-80c2-8e3b83d24cee" xmlns="http://www.w3.org/2000/svg" viewBox="0 0 150 41.82">
    <g id="uuid-e93023c5-5056-4b6b-963d-67214deb1fd3">
        <g>
            <g>
                <g>
                    <path d="M47.86,16.81v-.08c0-7.16,5.64-13.05,13.45-13.05s13.37,5.8,13.37,12.97v.08c0,7.16-5.64,13.05-13.45,13.05s-13.37-5.8-13.37-12.97h0Zm21.01,0v-.08c0-4.32-3.16-7.92-7.64-7.92s-7.56,3.52-7.56,7.84v.08c0,4.32,3.16,7.92,7.64,7.92s7.56-3.52,7.56-7.84Z" style="fill:#fff;" />
                    <path d="M79.6,4.12h5.56V15.13l10.25-11.01h6.68l-10.29,10.69,10.73,14.53h-6.68l-7.76-10.73-2.92,3.04v7.72h-5.56V4.12h0Z" style="fill:#fff;" />
                    <path d="M105.9,4.12h10.29c6,0,9.64,3.56,9.64,8.72v.08c0,5.84-4.52,8.84-10.21,8.84h-4.2v7.56h-5.56V4.12h.04Zm9.96,12.73c2.76,0,4.4-1.64,4.4-3.8v-.08c0-2.48-1.72-3.8-4.48-3.8h-4.28v7.72l4.36-.04h0Z" style="fill:#fff;" />
                    <path d="M141.27,23.89h-12.33l-.88-3.92,13.85-16.05h4.68v15.45h3.4v4.52h-3.4v5.44h-5.28v-5.44h-.04Zm0-4.48v-7.84l-6.68,7.84h6.68Z" style="fill:#fff;" />
                    <g id="uuid-436b523a-a65a-4e81-bc0f-eb238f67e971">
                        <path d="M57.51,24.45l-9.05,9-3.92-3.92L74.08,0h0l3.92,3.92-12.93,12.93-7.56,7.6h0Z" style="fill:#fff;" />
                    </g>
                </g>
                <polygon points="14.97 32.1 0 16.93 15.13 2 18.65 5.56 16.65 7.52 15.13 5.96 3.96 16.97 14.97 28.13 16.41 26.73 18.37 28.74 14.97 32.1" style="fill:#fff;" />
                <polygon points="25.97 22.81 24.01 20.81 27.73 17.13 23.89 13.21 25.85 11.25 31.7 17.17 25.97 22.81" style="fill:#cecece;" />
                <path d="M25.73,31.94l-14.93-15.13L22.17,5.6h0l3.76-3.72,14.93,15.17-15.13,14.89h0Zm-10.97-15.09l11.01,11.17,11.13-11.01L25.89,5.84l-11.13,11.01h0Z" style="fill:#fff;" />
            </g>
            <g>
                <path d="M48.87,41.62c-.2-.12-.36-.28-.48-.48-.12-.2-.16-.44-.16-.68v-1.12c0-.24,.04-.48,.16-.68,.12-.2,.28-.36,.48-.48,.2-.12,.44-.16,.72-.16s.52,.04,.72,.16,.36,.28,.48,.48c.12,.2,.16,.44,.16,.68v1.12c0,.28-.04,.48-.16,.68s-.28,.36-.48,.48c-.2,.12-.44,.16-.72,.16s-.52-.04-.72-.16Zm1.2-.64c.12-.12,.16-.28,.16-.48v-1.16c0-.2-.04-.36-.16-.48-.12-.12-.28-.2-.48-.2s-.36,.08-.44,.2-.16,.28-.16,.48v1.16c0,.2,.04,.36,.16,.48,.12,.12,.28,.2,.44,.2s.36-.08,.48-.2Z" style="fill:#fff;" />
                <path d="M54.47,38.22c.16,.08,.32,.24,.4,.4,.08,.16,.16,.36,.16,.6s-.04,.4-.16,.56-.24,.28-.4,.4-.4,.12-.6,.12h-.76s-.04,0-.04,.04v1.36l-.04,.04h-.6s-.04,0-.04-.04l-.04-.04v-3.52s0-.04,.04-.04,.04-.04,.04-.04h1.48c.2,.04,.4,.08,.56,.16h0Zm-.32,1.36c.08-.08,.16-.2,.16-.36s-.04-.28-.16-.36c-.08-.08-.24-.12-.4-.12h-.64s-.04,0-.04,.04v.96s0,.04,.04,.04h.64c.16-.04,.28-.08,.4-.2h0Z" style="fill:#fff;" />
                <path d="M58.83,38.7h-1.76s-.04,0-.04,.04v.8s0,.04,.04,.04h1.16v.6l-.04,.04h-1.12s-.04,0-.04,.04v.84s0,.04,.04,.04h1.72s.04,0,.04,.04,.04,.04,.04,.04v.52s0,.04-.04,.04-.04,.04-.04,.04h-2.4s-.04,0-.04-.04l-.04-.04v-3.52s0-.04,.04-.04h2.48l.04,.04v.52c-.04-.08-.04-.04-.04-.04h0Z" style="fill:#fff;" />
                <path d="M62.27,38.1h.68v3.6l-.04,.04h-.6s-.05-.01-.08-.04l-1.36-2.24h-.04v2.24s0,.04-.04,.04-.04,.04-.04,.04h-.6s-.04,0-.04-.04l-.04-.04v-3.52s0-.04,.04-.04h.64s.05,.01,.08,.04l1.36,2.2h.04v-2.24s.04,0,.04-.04h0Z" style="fill:#fff;" />
                <path d="M66.39,41.7l-.04-.04v-3.52s0-.04,.04-.04h.68l.04,.04v1.44h.04l1.2-1.48s.05-.04,.08-.04h.68s.04,.01,.04,.04v.04l-1.16,1.48v.04l1.24,1.96v.04s-.01,.04-.04,.04h-.72s-.05-.01-.08-.04l-.92-1.48h-.04l-.32,.4v1.08s0,.04-.04,.04-.04,.04-.04,.04h-.6s-.04,0-.04-.04h0Z" style="fill:#fff;" />
                <path d="M72.56,38.1h.68v3.6l-.04,.04h-.6s-.05-.01-.08-.04l-1.36-2.24h-.04v2.24s0,.04-.04,.04-.04,.04-.04,.04h-.6s-.04,0-.04-.04l-.04-.04v-3.52s0-.04,.04-.04h.64s.05,.01,.08,.04l1.36,2.2h.04v-2.24s.04,0,.04-.04h0Z" style="fill:#fff;" />
                <path d="M75.32,41.62c-.2-.12-.36-.28-.48-.48s-.16-.44-.16-.68v-1.12c0-.24,.04-.48,.16-.68s.28-.36,.48-.48c.2-.12,.44-.16,.72-.16s.52,.04,.72,.16c.2,.12,.36,.28,.48,.48s.16,.44,.16,.68v1.12c0,.28-.04,.48-.16,.68s-.28,.36-.48,.48c-.2,.12-.44,.16-.72,.16s-.52-.04-.72-.16Zm1.2-.64c.12-.12,.16-.28,.16-.48v-1.16c0-.2-.04-.36-.16-.48-.12-.12-.28-.2-.48-.2s-.36,.08-.44,.2-.16,.28-.16,.48v1.16c0,.2,.04,.36,.16,.48,.12,.12,.28,.2,.44,.2s.36-.08,.48-.2Z" style="fill:#fff;" />
                <path d="M79.48,41.7l-.92-3.52v-.04s.01-.04,.04-.04h.64s.05,.01,.08,.04l.48,2.12h0l.48-2.12s.04-.04,.08-.04h.64s.08,0,.08,.04l.52,2.12h0l.48-2.12s.04-.04,.08-.04h.6s.08,.04,.04,.08l-.84,3.52s-.04,.04-.08,.04h-.64s-.05-.01-.08-.04l-.52-2.24h0l-.48,2.24s-.04,.04-.08,.04h-.56l-.04-.04h0Z" style="fill:#fff;" />
                <path d="M84.16,41.7l-.04-.04v-3.52s0-.04,.04-.04h.68l.04,.04v2.92s0,.04,.04,.04h1.68s.04,0,.04,.04v.6l-.04,.04h-2.4s-.04-.04-.04-.08h0Z" style="fill:#fff;" />
                <path d="M90.45,38.7h-1.76s-.04,0-.04,.04v.8s0,.04,.04,.04h1.16v.6l-.04,.04h-1.12s-.04,0-.04,.04v.84s0,.04,.04,.04h1.72s.04,0,.04,.04,.04,.04,.04,.04v.52s0,.04-.04,.04-.04,.04-.04,.04h-2.4s-.04,0-.04-.04l-.04-.04v-3.52s0-.04,.04-.04h2.48l.04,.04v.52c0-.08,0-.04-.04-.04h0Z" style="fill:#fff;" />
                <path d="M91.85,41.7l-.04-.04v-3.52s0-.04,.04-.04h1.32c.24,0,.48,.04,.68,.12,.2,.08,.36,.24,.44,.4,.08,.16,.16,.36,.16,.56v1.44c0,.24-.04,.4-.16,.56-.12,.16-.24,.28-.44,.4s-.44,.12-.68,.12h-1.28s-.04,.04-.04,0h0Zm.72-.6h.64c.16,0,.28-.04,.4-.16s.16-.24,.16-.44v-1.2c0-.16-.04-.32-.16-.44s-.24-.16-.4-.16h-.64s-.04,0-.04,.04l.04,2.36s0,0,0,0h0Z" style="fill:#fff;" />
                <path d="M96.45,41.62c-.2-.12-.36-.24-.48-.44s-.16-.4-.16-.68v-1.16c0-.24,.04-.48,.16-.68s.28-.36,.48-.44c.2-.12,.44-.16,.72-.16s.48,.04,.72,.16,.36,.24,.48,.44,.16,.36,.16,.6v.08l-.04,.04h-.6s-.04,0-.04-.04-.04-.04-.04-.04h0c0-.16-.04-.28-.16-.4s-.24-.16-.44-.16-.32,.08-.44,.16c-.12,.08-.16,.28-.16,.44v1.2c0,.2,.04,.32,.2,.44,.12,.12,.28,.16,.48,.16s.32-.04,.44-.16,.16-.24,.16-.4v-.24s0-.04-.04-.04h-.6s-.04,0-.04-.04v-.56h1.36v.72c0,.28-.04,.48-.16,.68s-.28,.36-.48,.44c-.2,.12-.44,.16-.72,.16s-.56,.04-.76-.08h0Z" style="fill:#fff;" />
                <path d="M102.41,38.7h-1.76s-.04,0-.04,.04v.8s0,.04,.04,.04h1.16v.6l-.04,.04h-1.12s-.04,0-.04,.04v.84s0,.04,.04,.04h1.72s.04,0,.04,.04v.6l-.04,.04h-2.4s-.04,0-.04-.04v-3.6h2.48v.56c0-.08,0-.04,0-.04h0Z" style="fill:#fff;" />
                <path d="M107.78,38.22c.16,.08,.32,.24,.4,.4s.16,.36,.16,.6-.04,.4-.16,.56-.24,.28-.4,.4-.4,.12-.6,.12h-.76s-.04,0-.04,.04v1.36l-.04,.04h-.64s-.04,0-.04-.04v-3.6l.04-.04h1.48c.2,.04,.4,.08,.6,.16h0Zm-.36,1.36c.08-.08,.16-.2,.16-.36s-.04-.28-.16-.36c-.08-.08-.24-.12-.4-.12h-.64s-.04,0-.04,.04v.96s0,.04,.04,.04h.64c.2-.04,.32-.08,.4-.2h0Z" style="fill:#fff;" />
                <path d="M111.54,41.7l-.64-1.44s0-.04-.04-.04h-.48s-.04,0-.04,.04v1.48l-.04,.04h-.6s-.04,0-.04-.04v-3.6h1.52c.2,0,.4,.04,.6,.12,.16,.08,.32,.24,.4,.4s.12,.36,.12,.56c0,.24-.04,.44-.16,.6-.12,.16-.28,.28-.48,.36,0,0-.04,.04,0,.04l.72,1.48v.04s-.01,.04-.04,.04h-.64c-.16-.04-.16-.08-.16-.08h0Zm-1.2-2.96v.88s0,.04,.04,.04h.68c.16,0,.28-.04,.36-.12s.12-.2,.12-.32-.04-.24-.12-.32-.2-.12-.36-.12l-.72-.04h0Z" style="fill:#fff;" />
                <path d="M114.22,41.62c-.2-.12-.36-.28-.48-.48s-.16-.44-.16-.68v-1.12c0-.24,.04-.48,.16-.68s.28-.36,.48-.48c.2-.12,.44-.16,.72-.16s.52,.04,.72,.16,.36,.28,.48,.48c.12,.2,.16,.44,.16,.68v1.12c0,.28-.04,.48-.16,.68s-.28,.36-.48,.48c-.2,.12-.44,.16-.72,.16s-.52-.04-.72-.16Zm1.16-.64c.12-.12,.16-.28,.16-.48v-1.16c0-.2-.04-.36-.16-.48s-.28-.2-.48-.2-.36,.08-.44,.2-.16,.28-.16,.48v1.16c0,.2,.04,.36,.16,.48,.12,.12,.28,.2,.44,.2s.36-.08,.48-.2Z" style="fill:#fff;" />
                <path d="M120.22,38.1v.6l-.04,.04h-.92s-.04,0-.04,.04v2.96l-.04,.04h-.6s-.04,0-.04-.04v-2.96s0-.04-.04-.04h-.92s-.04,0-.04-.04v-.6h2.68Z" style="fill:#fff;" />
                <path d="M121.98,41.62c-.2-.12-.36-.28-.48-.48s-.16-.44-.16-.68v-1.12c0-.24,.04-.48,.16-.68s.28-.36,.48-.48c.2-.12,.44-.16,.72-.16s.52,.04,.72,.16,.36,.28,.48,.48c.12,.2,.16,.44,.16,.68v1.12c0,.28-.04,.48-.16,.68-.12,.2-.28,.36-.48,.48-.2,.12-.44,.16-.72,.16s-.52-.04-.72-.16Zm1.16-.64c.12-.12,.16-.28,.16-.48v-1.16c0-.2-.04-.36-.16-.48-.12-.12-.28-.2-.48-.2s-.36,.08-.44,.2-.16,.28-.16,.48v1.16c0,.2,.04,.36,.16,.48,.12,.12,.28,.2,.44,.2s.36-.08,.48-.2Z" style="fill:#fff;" />
                <path d="M126.03,41.62c-.2-.12-.36-.24-.48-.44-.12-.2-.16-.4-.16-.68v-1.2c0-.24,.04-.48,.16-.68,.12-.2,.28-.32,.48-.44s.44-.16,.72-.16,.48,.04,.72,.16,.36,.24,.48,.44c.12,.2,.16,.4,.16,.64,0,.03-.03,.04-.08,.04l-.6,.04h0s-.04-.04-.04-.04c0-.2-.04-.32-.16-.44s-.24-.16-.44-.16-.32,.04-.44,.16-.16,.28-.16,.44v1.24c0,.16,.04,.32,.16,.44s.28,.16,.44,.16,.32-.04,.44-.16,.16-.24,.16-.44c0-.03,.03-.04,.08-.04l.6,.04h.04v.04c0,.24-.04,.44-.16,.64s-.28,.32-.48,.44c-.2,.08-.44,.16-.72,.16s-.52-.08-.72-.2h0Z" style="fill:#fff;" />
                <path d="M130.03,41.62c-.2-.12-.36-.28-.48-.48s-.16-.44-.16-.68v-1.12c0-.24,.04-.48,.16-.68s.28-.36,.48-.48c.2-.12,.44-.16,.72-.16s.52,.04,.72,.16c.2,.12,.36,.28,.48,.48,.12,.2,.16,.44,.16,.68v1.12c0,.28-.04,.48-.16,.68-.12,.2-.28,.36-.48,.48-.2,.12-.44,.16-.72,.16s-.48-.04-.72-.16Zm1.2-.64c.12-.12,.16-.28,.16-.48v-1.16c0-.2-.04-.36-.16-.48-.12-.12-.28-.2-.48-.2s-.36,.08-.44,.2-.16,.28-.16,.48v1.16c0,.2,.04,.36,.16,.48,.12,.12,.28,.2,.44,.2s.36-.08,.48-.2Z" style="fill:#fff;" />
                <path d="M133.55,41.7v-3.6h.68v2.96s0,.04,.04,.04h1.68s.04,0,.04,.04v.6l-.04,.04h-2.4s0-.04,0-.08h0Z" style="fill:#fff;" />
                <path d="M141.71,38.7h-1.72s-.04,0-.04,.04v.8s0,.04,.04,.04h1.16v.6l-.04,.04h-1.12s-.04,0-.04,.04v1.48l-.04,.04h-.6s-.04,0-.04-.04v-3.6h2.48v.56s0,0-.04,0h0Z" style="fill:#fff;" />
                <path d="M143.55,41.62c-.2-.12-.36-.28-.48-.48-.12-.2-.16-.44-.16-.68v-1.12c0-.24,.04-.48,.16-.68,.12-.2,.28-.36,.48-.48,.2-.12,.44-.16,.72-.16s.52,.04,.72,.16,.36,.28,.48,.48c.12,.2,.16,.44,.16,.68v1.12c0,.28-.04,.48-.16,.68-.12,.2-.28,.36-.48,.48-.2,.12-.44,.16-.72,.16s-.52-.04-.72-.16Zm1.16-.64c.12-.12,.16-.28,.16-.48v-1.16c0-.2-.04-.36-.16-.48s-.28-.2-.48-.2-.36,.08-.44,.2c-.08,.12-.16,.28-.16,.48v1.16c0,.2,.04,.36,.16,.48,.12,.12,.28,.2,.44,.2s.36-.08,.48-.2Z" style="fill:#fff;" />
                <path d="M148.96,41.7l-.64-1.44s0-.04-.04-.04h-.48s-.04,0-.04,.04v1.48l-.04,.04h-.6s-.04,0-.04-.04v-3.6h1.52c.2,0,.4,.04,.6,.12,.16,.08,.32,.24,.4,.4s.12,.36,.12,.56c0,.24-.04,.44-.16,.6-.12,.16-.28,.28-.48,.36,0,0-.04,.04,0,.04l.72,1.48v.04s-.01,.04-.04,.04h-.64c-.12-.04-.16-.08-.16-.08h0Zm-1.2-2.96v.88s0,.04,.04,.04h.68c.16,0,.28-.04,.36-.12s.12-.2,.12-.32-.04-.24-.12-.32-.2-.12-.36-.12l-.72-.04s0,0,0,0h0Z" style="fill:#fff;" />
            </g>
        </g>
    </g>
</svg>